<svg width="50" height="50" viewBox="0 0 50 50" fill="none" xmlns="http://www.w3.org/2000/svg">
<g clip-path="url(#clip0)">
<rect x="0.5" y="0.5" width="49" height="49" rx="2.5" fill="white"/>
<path fill-rule="evenodd" clip-rule="evenodd" d="M6.08596 16.7337C4.0977 15.9915 1.90852 15.9907 -0.0802531 16.7316C-2.06902 17.4725 -3.72413 18.9054 -4.74215 20.7675C-5.76016 22.6297 -6.07287 24.7965 -5.62296 26.8705C-5.55409 27.188 -5.75563 27.5012 -6.07312 27.5701C-6.39061 27.639 -6.70382 27.4374 -6.77269 27.1199C-7.28259 24.7693 -6.92818 22.3137 -5.77443 20.2032C-4.62068 18.0927 -2.7449 16.4688 -0.490955 15.6291C1.76299 14.7895 4.24405 14.7903 6.49742 15.6315C8.75078 16.4728 10.6254 18.098 11.7777 20.2093C12.93 22.3206 13.2828 24.7764 12.7712 27.1267C12.2597 29.4769 10.9182 31.564 8.99269 33.0054C7.06717 34.4469 4.68662 35.1459 2.28747 34.9746C-0.111678 34.8032 -2.36867 33.7728 -4.06976 32.0723C-4.29953 31.8427 -4.29959 31.4702 -4.06992 31.2405C-3.84024 31.0107 -3.46779 31.0106 -3.23803 31.2403C-1.73706 32.7407 0.254403 33.6499 2.3713 33.8011C4.4882 33.9523 6.58867 33.3355 8.28767 32.0636C9.98666 30.7918 11.1703 28.9502 11.6217 26.8765C12.073 24.8027 11.7618 22.6358 10.7451 20.7729C9.72832 18.91 8.07421 17.476 6.08596 16.7337Z" fill="#CECECE"/>
<path fill-rule="evenodd" clip-rule="evenodd" d="M5.04854 20.2188C3.94345 19.7135 2.69329 19.6235 1.52724 19.9653C0.361193 20.307 -0.642609 21.0576 -1.30015 22.0794C-1.44079 22.298 -1.73198 22.3612 -1.95054 22.2205C-2.1691 22.0799 -2.23226 21.7887 -2.09162 21.5701C-1.31157 20.3579 -0.120758 19.4675 1.26254 19.0621C2.64583 18.6567 4.1289 18.7634 5.43987 19.3628C6.75084 19.9621 7.80187 21.0139 8.40027 22.3253C8.99867 23.6367 9.10435 25.1199 8.69793 26.5029C8.29152 27.8859 7.40025 29.0761 6.1875 29.8552C4.97475 30.6344 3.5218 30.9503 2.095 30.7452C0.668201 30.54 -0.636846 29.8274 -1.58088 28.7381C-2.52492 27.6487 -3.04469 26.2556 -3.04492 24.8141C-3.04496 24.5542 -2.83431 24.3435 -2.57441 24.3435C-2.31451 24.3434 -2.10379 24.5541 -2.10375 24.814C-2.10355 26.0291 -1.66541 27.2034 -0.869629 28.1217C-0.0738509 29.0399 1.02624 29.6406 2.22897 29.8136C3.4317 29.9865 4.65647 29.7202 5.67876 29.0634C6.70105 28.4066 7.45235 27.4033 7.79494 26.2375C8.13753 25.0717 8.04844 23.8215 7.54402 22.716C7.03959 21.6106 6.15363 20.724 5.04854 20.2188Z" fill="#CECECE"/>
<path fill-rule="evenodd" clip-rule="evenodd" d="M9.57485 22.33C9.87944 22.217 10.218 22.3723 10.331 22.6769C11.0117 24.5114 10.9357 26.5412 10.1199 28.3198C9.30402 30.0983 7.81506 31.48 5.98054 32.1607C5.67596 32.2737 5.33743 32.1185 5.22441 31.8139C5.11138 31.5093 5.26667 31.1708 5.57125 31.0577C7.11324 30.4855 8.36478 29.3242 9.05055 27.8292C9.73632 26.3343 9.80014 24.6281 9.22799 23.0861C9.11497 22.7815 9.27027 22.443 9.57485 22.33Z" fill="#CECECE"/>
<path d="M9.29403 22.2636C9.57615 22.2636 9.80486 22.0349 9.80486 21.7528C9.80486 21.4706 9.57615 21.2419 9.29403 21.2419C9.01191 21.2419 8.7832 21.4706 8.7832 21.7528C8.7832 22.0349 9.01191 22.2636 9.29403 22.2636Z" fill="#CECECE"/>
<path fill-rule="evenodd" clip-rule="evenodd" d="M2.94692 21.4968C2.06711 21.4968 1.22334 21.8463 0.601221 22.4684C-0.0209 23.0905 -0.370404 23.9343 -0.370404 24.8141C-0.370404 25.6939 -0.0209 26.5377 0.601221 27.1598C1.22334 27.7819 2.06711 28.1314 2.94692 28.1314C3.27179 28.1314 3.53515 28.3948 3.53515 28.7197C3.53515 29.0446 3.27179 29.3079 2.94692 29.3079C1.75509 29.3079 0.61208 28.8345 -0.23067 27.9917C-1.07342 27.149 -1.54688 26.0059 -1.54688 24.8141C-1.54688 23.6223 -1.07342 22.4793 -0.23067 21.6365C0.61208 20.7938 1.75509 20.3203 2.94692 20.3203C3.27179 20.3203 3.53515 20.5837 3.53515 20.9085C3.53515 21.2334 3.27179 21.4968 2.94692 21.4968Z" fill="#CECECE"/>
<path d="M3.22275 23.2648C2.36679 23.2648 1.67041 23.9612 1.67041 24.8171C1.67041 25.6731 2.36679 26.3695 3.22275 26.3695C4.07871 26.3695 4.77509 25.6731 4.77509 24.8171C4.77509 23.9612 4.07871 23.2648 3.22275 23.2648ZM3.22275 22.2448C4.64343 22.2448 5.79511 23.3964 5.79511 24.8171C5.79511 26.2378 4.64343 27.3895 3.22275 27.3895C1.80208 27.3895 0.650391 26.2378 0.650391 24.8171C0.650391 23.3964 1.80208 22.2448 3.22275 22.2448Z" fill="#CECECE"/>
<path fill-rule="evenodd" clip-rule="evenodd" d="M28.086 16.7337C26.0977 15.9915 23.9085 15.9907 21.9197 16.7316C19.931 17.4725 18.2759 18.9054 17.2579 20.7675C16.2398 22.6297 15.9271 24.7965 16.377 26.8705C16.4459 27.188 16.2444 27.5012 15.9269 27.5701C15.6094 27.639 15.2962 27.4374 15.2273 27.1199C14.7174 24.7693 15.0718 22.3137 16.2256 20.2032C17.3793 18.0927 19.2551 16.4688 21.509 15.6291C23.763 14.7895 26.2441 14.7903 28.4974 15.6315C30.7508 16.4728 32.6254 18.098 33.7777 20.2093C34.93 22.3206 35.2828 24.7764 34.7712 27.1267C34.2597 29.4769 32.9182 31.564 30.9927 33.0054C29.0672 34.4469 26.6866 35.1459 24.2875 34.9746C21.8883 34.8032 19.6313 33.7728 17.9302 32.0723C17.7005 31.8427 17.7004 31.4702 17.9301 31.2405C18.1598 31.0107 18.5322 31.0106 18.762 31.2403C20.2629 32.7407 22.2544 33.6499 24.3713 33.8011C26.4882 33.9523 28.5887 33.3355 30.2877 32.0636C31.9867 30.7918 33.1703 28.9502 33.6217 26.8765C34.073 24.8027 33.7618 22.6358 32.7451 20.7729C31.7283 18.91 30.0742 17.476 28.086 16.7337Z" fill="#CECECE"/>
<path fill-rule="evenodd" clip-rule="evenodd" d="M27.0485 20.2188C25.9435 19.7135 24.6933 19.6235 23.5272 19.9653C22.3612 20.307 21.3574 21.0576 20.6998 22.0794C20.5592 22.298 20.268 22.3612 20.0495 22.2205C19.8309 22.0799 19.7677 21.7887 19.9084 21.5701C20.6884 20.3579 21.8792 19.4675 23.2625 19.0621C24.6458 18.6567 26.1289 18.7634 27.4399 19.3628C28.7508 19.9621 29.8019 21.0139 30.4003 22.3253C30.9987 23.6367 31.1043 25.1199 30.6979 26.5029C30.2915 27.8859 29.4002 29.0761 28.1875 29.8552C26.9748 30.6344 25.5218 30.9503 24.095 30.7452C22.6682 30.54 21.3632 29.8274 20.4191 28.7381C19.4751 27.6487 18.9553 26.2556 18.9551 24.8141C18.955 24.5542 19.1657 24.3435 19.4256 24.3435C19.6855 24.3434 19.8962 24.5541 19.8963 24.814C19.8964 26.0291 20.3346 27.2034 21.1304 28.1217C21.9261 29.0399 23.0262 29.6406 24.229 29.8136C25.4317 29.9865 26.6565 29.7202 27.6788 29.0634C28.701 28.4066 29.4523 27.4033 29.7949 26.2375C30.1375 25.0717 30.0484 23.8215 29.544 22.716C29.0396 21.6106 28.1536 20.724 27.0485 20.2188Z" fill="#CECECE"/>
<path fill-rule="evenodd" clip-rule="evenodd" d="M31.5749 22.33C31.8794 22.217 32.218 22.3723 32.331 22.6769C33.0117 24.5114 32.9357 26.5412 32.1199 28.3198C31.304 30.0983 29.8151 31.48 27.9805 32.1607C27.676 32.2737 27.3374 32.1185 27.2244 31.8139C27.1114 31.5093 27.2667 31.1708 27.5712 31.0577C29.1132 30.4855 30.3648 29.3242 31.0505 27.8292C31.7363 26.3343 31.8001 24.6281 31.228 23.0861C31.115 22.7815 31.2703 22.443 31.5749 22.33Z" fill="#CECECE"/>
<path fill-rule="evenodd" clip-rule="evenodd" d="M20.491 19.3865C20.7054 19.6306 20.6814 20.0022 20.4373 20.2167C19.6577 20.9016 19.0626 21.7715 18.7066 22.7463C18.3507 23.7211 18.2453 24.7698 18.4001 25.7959C18.4486 26.1172 18.2275 26.4169 17.9062 26.4653C17.585 26.5138 17.2853 26.2927 17.2368 25.9715C17.0526 24.7504 17.178 23.5027 17.6015 22.3428C18.025 21.1829 18.7331 20.1479 19.6608 19.3329C19.9049 19.1184 20.2765 19.1425 20.491 19.3865Z" fill="#CECECE"/>
<path d="M31.294 22.2636C31.5762 22.2636 31.8049 22.0349 31.8049 21.7528C31.8049 21.4706 31.5762 21.2419 31.294 21.2419C31.0119 21.2419 30.7832 21.4706 30.7832 21.7528C30.7832 22.0349 31.0119 22.2636 31.294 22.2636Z" fill="#CECECE"/>
<path fill-rule="evenodd" clip-rule="evenodd" d="M24.9469 21.4968C24.0671 21.4968 23.2233 21.8463 22.6012 22.4684C21.9791 23.0905 21.6296 23.9343 21.6296 24.8141C21.6296 25.6939 21.9791 26.5377 22.6012 27.1598C23.2233 27.7819 24.0671 28.1314 24.9469 28.1314C25.2718 28.1314 25.5352 28.3948 25.5352 28.7197C25.5352 29.0446 25.2718 29.3079 24.9469 29.3079C23.7551 29.3079 22.6121 28.8345 21.7693 27.9917C20.9266 27.149 20.4531 26.0059 20.4531 24.8141C20.4531 23.6223 20.9266 22.4793 21.7693 21.6365C22.6121 20.7938 23.7551 20.3203 24.9469 20.3203C25.2718 20.3203 25.5352 20.5837 25.5352 20.9085C25.5352 21.2334 25.2718 21.4968 24.9469 21.4968Z" fill="#CECECE"/>
<path d="M18.2354 27.6159C18.5176 27.6159 18.7463 27.3872 18.7463 27.1051C18.7463 26.8229 18.5176 26.5942 18.2354 26.5942C17.9533 26.5942 17.7246 26.8229 17.7246 27.1051C17.7246 27.3872 17.9533 27.6159 18.2354 27.6159Z" fill="#CECECE"/>
<path d="M25.2228 23.2648C24.3668 23.2648 23.6704 23.9612 23.6704 24.8171C23.6704 25.6731 24.3668 26.3695 25.2228 26.3695C26.0787 26.3695 26.7751 25.6731 26.7751 24.8171C26.7751 23.9612 26.0787 23.2648 25.2228 23.2648ZM25.2228 22.2448C26.6434 22.2448 27.7951 23.3964 27.7951 24.8171C27.7951 26.2378 26.6434 27.3895 25.2228 27.3895C23.8021 27.3895 22.6504 26.2378 22.6504 24.8171C22.6504 23.3964 23.8021 22.2448 25.2228 22.2448Z" fill="#CECECE"/>
<path fill-rule="evenodd" clip-rule="evenodd" d="M50.086 16.7337C48.0977 15.9915 45.9085 15.9907 43.9197 16.7316C41.931 17.4725 40.2759 18.9054 39.2579 20.7675C38.2398 22.6297 37.9271 24.7965 38.377 26.8705C38.4459 27.188 38.2444 27.5012 37.9269 27.5701C37.6094 27.639 37.2962 27.4374 37.2273 27.1199C36.7174 24.7693 37.0718 22.3137 38.2256 20.2032C39.3793 18.0927 41.2551 16.4688 43.509 15.6291C45.763 14.7895 48.2441 14.7903 50.4974 15.6315C52.7508 16.4728 54.6254 18.098 55.7777 20.2093C56.93 22.3206 57.2828 24.7764 56.7712 27.1267C56.2597 29.4769 54.9182 31.564 52.9927 33.0054C51.0672 34.4469 48.6866 35.1459 46.2875 34.9746C43.8883 34.8032 41.6313 33.7728 39.9302 32.0723C39.7005 31.8427 39.7004 31.4702 39.9301 31.2405C40.1598 31.0107 40.5322 31.0106 40.762 31.2403C42.2629 32.7407 44.2544 33.6499 46.3713 33.8011C48.4882 33.9523 50.5887 33.3355 52.2877 32.0636C53.9867 30.7918 55.1703 28.9502 55.6217 26.8765C56.073 24.8027 55.7618 22.6358 54.7451 20.7729C53.7283 18.91 52.0742 17.476 50.086 16.7337Z" fill="#CECECE"/>
<path fill-rule="evenodd" clip-rule="evenodd" d="M49.0485 20.2188C47.9435 19.7135 46.6933 19.6235 45.5272 19.9653C44.3612 20.307 43.3574 21.0576 42.6998 22.0794C42.5592 22.298 42.268 22.3612 42.0495 22.2205C41.8309 22.0799 41.7677 21.7887 41.9084 21.5701C42.6884 20.3579 43.8792 19.4675 45.2625 19.0621C46.6458 18.6567 48.1289 18.7634 49.4399 19.3628C50.7508 19.9621 51.8019 21.0139 52.4003 22.3253C52.9987 23.6367 53.1043 25.1199 52.6979 26.5029C52.2915 27.8859 51.4002 29.0761 50.1875 29.8552C48.9748 30.6344 47.5218 30.9503 46.095 30.7452C44.6682 30.54 43.3632 29.8274 42.4191 28.7381C41.4751 27.6487 40.9553 26.2556 40.9551 24.8141C40.955 24.5542 41.1657 24.3435 41.4256 24.3435C41.6855 24.3434 41.8962 24.5541 41.8963 24.814C41.8964 26.0291 42.3346 27.2034 43.1304 28.1217C43.9261 29.0399 45.0262 29.6406 46.229 29.8136C47.4317 29.9865 48.6565 29.7202 49.6788 29.0634C50.701 28.4066 51.4523 27.4033 51.7949 26.2375C52.1375 25.0717 52.0484 23.8215 51.544 22.716C51.0396 21.6106 50.1536 20.724 49.0485 20.2188Z" fill="#CECECE"/>
<path fill-rule="evenodd" clip-rule="evenodd" d="M42.491 19.3865C42.7054 19.6306 42.6814 20.0022 42.4373 20.2167C41.6577 20.9016 41.0626 21.7715 40.7066 22.7463C40.3507 23.7211 40.2453 24.7698 40.4001 25.7959C40.4486 26.1172 40.2275 26.4169 39.9062 26.4653C39.585 26.5138 39.2853 26.2927 39.2368 25.9715C39.0526 24.7504 39.178 23.5027 39.6015 22.3428C40.025 21.1829 40.7331 20.1479 41.6608 19.3329C41.9049 19.1184 42.2765 19.1425 42.491 19.3865Z" fill="#CECECE"/>
<path fill-rule="evenodd" clip-rule="evenodd" d="M46.9469 21.4968C46.0671 21.4968 45.2233 21.8463 44.6012 22.4684C43.9791 23.0905 43.6296 23.9343 43.6296 24.8141C43.6296 25.6939 43.9791 26.5377 44.6012 27.1598C45.2233 27.7819 46.0671 28.1314 46.9469 28.1314C47.2718 28.1314 47.5352 28.3948 47.5352 28.7197C47.5352 29.0446 47.2718 29.3079 46.9469 29.3079C45.7551 29.3079 44.6121 28.8345 43.7693 27.9917C42.9266 27.149 42.4531 26.0059 42.4531 24.8141C42.4531 23.6223 42.9266 22.4793 43.7693 21.6365C44.6121 20.7938 45.7551 20.3203 46.9469 20.3203C47.2718 20.3203 47.5352 20.5837 47.5352 20.9085C47.5352 21.2334 47.2718 21.4968 46.9469 21.4968Z" fill="#CECECE"/>
<path d="M40.2354 27.6159C40.5176 27.6159 40.7463 27.3872 40.7463 27.1051C40.7463 26.8229 40.5176 26.5942 40.2354 26.5942C39.9533 26.5942 39.7246 26.8229 39.7246 27.1051C39.7246 27.3872 39.9533 27.6159 40.2354 27.6159Z" fill="#CECECE"/>
<path d="M47.2228 23.2648C46.3668 23.2648 45.6704 23.9612 45.6704 24.8171C45.6704 25.6731 46.3668 26.3695 47.2228 26.3695C48.0787 26.3695 48.7751 25.6731 48.7751 24.8171C48.7751 23.9612 48.0787 23.2648 47.2228 23.2648ZM47.2228 22.2448C48.6434 22.2448 49.7951 23.3964 49.7951 24.8171C49.7951 26.2378 48.6434 27.3895 47.2228 27.3895C45.8021 27.3895 44.6504 26.2378 44.6504 24.8171C44.6504 23.3964 45.8021 22.2448 47.2228 22.2448Z" fill="#CECECE"/>
<path fill-rule="evenodd" clip-rule="evenodd" d="M-4.91404 -7.26629C-6.9023 -8.00854 -9.09148 -8.0093 -11.0803 -7.26841C-13.069 -6.52753 -14.7241 -5.09465 -15.7421 -3.23245C-16.7602 -1.37026 -17.0729 0.796471 -16.623 2.87053C-16.5541 3.18802 -16.7556 3.50122 -17.0731 3.57009C-17.3906 3.63897 -17.7038 3.43742 -17.7727 3.11993C-18.2826 0.769336 -17.9282 -1.68629 -16.7744 -3.79678C-15.6207 -5.90727 -13.7449 -7.5312 -11.491 -8.37087C-9.23701 -9.21054 -6.75595 -9.20968 -4.50258 -8.36846C-2.24922 -7.52724 -0.374561 -5.90201 0.777735 -3.79073C1.93003 -1.67945 2.28275 0.776421 1.77123 3.12667C1.25971 5.47691 -0.0817833 7.56404 -2.00731 9.00545C-3.93283 10.4469 -6.31338 11.1459 -8.71253 10.9746C-11.1117 10.8032 -13.3687 9.77281 -15.0698 8.07235C-15.2995 7.84267 -15.2996 7.47022 -15.0699 7.24046C-14.8402 7.01069 -14.4678 7.01063 -14.238 7.2403C-12.7371 8.74072 -10.7456 9.64987 -8.6287 9.80109C-6.5118 9.95231 -4.41133 9.33546 -2.71233 8.06363C-1.01334 6.7918 0.170328 4.95021 0.62167 2.87647C1.07301 0.802723 0.761789 -1.36422 -0.254942 -3.22711C-1.27168 -5.09001 -2.92579 -6.52403 -4.91404 -7.26629Z" fill="#CECECE"/>
<path fill-rule="evenodd" clip-rule="evenodd" d="M17.086 -7.26629C15.0977 -8.00854 12.9085 -8.0093 10.9197 -7.26841C8.93098 -6.52753 7.27587 -5.09465 6.25785 -3.23245C5.23984 -1.37026 4.92713 0.796471 5.37704 2.87053C5.44591 3.18802 5.24437 3.50122 4.92688 3.57009C4.60939 3.63897 4.29618 3.43742 4.22731 3.11993C3.71741 0.769336 4.07182 -1.68629 5.22557 -3.79678C6.37932 -5.90727 8.2551 -7.5312 10.509 -8.37087C12.763 -9.21054 15.2441 -9.20968 17.4974 -8.36846C19.7508 -7.52724 21.6254 -5.90201 22.7777 -3.79073C23.93 -1.67945 24.2828 0.776421 23.7712 3.12667C23.2597 5.47691 21.9182 7.56404 19.9927 9.00545C18.0672 10.4469 15.6866 11.1459 13.2875 10.9746C10.8883 10.8032 8.63133 9.77281 6.93024 8.07235C6.70047 7.84267 6.70041 7.47022 6.93008 7.24046C7.15976 7.01069 7.53221 7.01063 7.76197 7.2403C9.26294 8.74072 11.2544 9.64987 13.3713 9.80109C15.4882 9.95231 17.5887 9.33546 19.2877 8.06363C20.9867 6.7918 22.1703 4.95021 22.6217 2.87647C23.073 0.802723 22.7618 -1.36422 21.7451 -3.22711C20.7283 -5.09001 19.0742 -6.52403 17.086 -7.26629Z" fill="#CECECE"/>
<path fill-rule="evenodd" clip-rule="evenodd" d="M16.0485 -3.78125C14.9435 -4.28647 13.6933 -4.37646 12.5272 -4.03471C11.3612 -3.69296 10.3574 -2.94238 9.69985 -1.92056C9.55921 -1.70201 9.26802 -1.63884 9.04946 -1.77949C8.8309 -1.92013 8.76774 -2.21132 8.90838 -2.42987C9.68843 -3.64206 10.8792 -4.53248 12.2625 -4.93789C13.6458 -5.34331 15.1289 -5.23656 16.4399 -4.63721C17.7508 -4.03787 18.8019 -2.98608 19.4003 -1.67468C19.9987 -0.363276 20.1043 1.11987 19.6979 2.50287C19.2915 3.88587 18.4002 5.07605 17.1875 5.85522C15.9748 6.6344 14.5218 6.95035 13.095 6.74516C11.6682 6.53997 10.3632 5.8274 9.41912 4.73806C8.47508 3.64872 7.95531 2.25561 7.95508 0.814135C7.95504 0.554236 8.16569 0.343513 8.42559 0.343473C8.68549 0.343431 8.89621 0.554088 8.89625 0.813986C8.89645 2.02909 9.33459 3.20341 10.1304 4.12167C10.9261 5.03993 12.0262 5.6406 13.229 5.81357C14.4317 5.98653 15.6565 5.7202 16.6788 5.06339C17.701 4.40659 18.4523 3.40332 18.7949 2.23752C19.1375 1.07171 19.0484 -0.178515 18.544 -1.28397C18.0396 -2.38942 17.1536 -3.27603 16.0485 -3.78125Z" fill="#CECECE"/>
<path fill-rule="evenodd" clip-rule="evenodd" d="M20.5749 -1.67001C20.8794 -1.78302 21.218 -1.62773 21.331 -1.32314C22.0117 0.511399 21.9357 2.54121 21.1199 4.31977C20.304 6.09832 18.8151 7.47995 16.9805 8.16071C16.676 8.27374 16.3374 8.11845 16.2244 7.81387C16.1114 7.5093 16.2667 7.17076 16.5712 7.05774C18.1132 6.48553 19.3648 5.3242 20.0505 3.82924C20.7363 2.33428 20.8001 0.628133 20.228 -0.913885C20.115 -1.21847 20.2703 -1.557 20.5749 -1.67001Z" fill="#CECECE"/>
<path fill-rule="evenodd" clip-rule="evenodd" d="M9.49095 -4.61348C9.70538 -4.36942 9.68135 -3.99775 9.43729 -3.78333C8.65767 -3.09836 8.06257 -2.22854 7.70662 -1.25371C7.35068 -0.278871 7.24529 0.769755 7.40012 1.79593C7.44859 2.11717 7.22747 2.41687 6.90623 2.46534C6.58499 2.51381 6.28528 2.29269 6.23682 1.97145C6.05258 0.75044 6.17799 -0.497289 6.60152 -1.65722C7.02505 -2.81715 7.73313 -3.85212 8.66079 -4.66714C8.90485 -4.88157 9.27653 -4.85754 9.49095 -4.61348Z" fill="#CECECE"/>
<path fill-rule="evenodd" clip-rule="evenodd" d="M13.9469 -2.50322C13.0671 -2.50322 12.2233 -2.15371 11.6012 -1.53159C10.9791 -0.909471 10.6296 -0.0656948 10.6296 0.814116C10.6296 1.69393 10.9791 2.5377 11.6012 3.15982C12.2233 3.78195 13.0671 4.13145 13.9469 4.13145C14.2718 4.13145 14.5352 4.39481 14.5352 4.71968C14.5352 5.04456 14.2718 5.30792 13.9469 5.30792C12.7551 5.30792 11.6121 4.83447 10.7693 3.99171C9.92658 3.14896 9.45312 2.00595 9.45312 0.814116C9.45312 -0.377715 9.92658 -1.52073 10.7693 -2.36348C11.6121 -3.20623 12.7551 -3.67969 13.9469 -3.67969C14.2718 -3.67969 14.5352 -3.41633 14.5352 -3.09145C14.5352 -2.76658 14.2718 -2.50322 13.9469 -2.50322Z" fill="#CECECE"/>
<path d="M7.23544 3.61589C7.51756 3.61589 7.74626 3.38719 7.74626 3.10507C7.74626 2.82294 7.51756 2.59424 7.23544 2.59424C6.95331 2.59424 6.72461 2.82294 6.72461 3.10507C6.72461 3.38719 6.95331 3.61589 7.23544 3.61589Z" fill="#CECECE"/>
<path d="M14.2228 -0.735226C13.3668 -0.735226 12.6704 -0.0388495 12.6704 0.817114C12.6704 1.67308 13.3668 2.36945 14.2228 2.36945C15.0787 2.36945 15.7751 1.67308 15.7751 0.817114C15.7751 -0.0388495 15.0787 -0.735226 14.2228 -0.735226ZM14.2228 -1.75525C15.6434 -1.75525 16.7951 -0.603563 16.7951 0.817114C16.7951 2.23779 15.6434 3.38948 14.2228 3.38948C12.8021 3.38948 11.6504 2.23779 11.6504 0.817114C11.6504 -0.603563 12.8021 -1.75525 14.2228 -1.75525Z" fill="#CECECE"/>
<path fill-rule="evenodd" clip-rule="evenodd" d="M39.086 -7.26629C37.0977 -8.00854 34.9085 -8.0093 32.9197 -7.26841C30.931 -6.52753 29.2759 -5.09465 28.2579 -3.23245C27.2398 -1.37026 26.9271 0.796471 27.377 2.87053C27.4459 3.18802 27.2444 3.50122 26.9269 3.57009C26.6094 3.63897 26.2962 3.43742 26.2273 3.11993C25.7174 0.769336 26.0718 -1.68629 27.2256 -3.79678C28.3793 -5.90727 30.2551 -7.5312 32.509 -8.37087C34.763 -9.21054 37.2441 -9.20968 39.4974 -8.36846C41.7508 -7.52724 43.6254 -5.90201 44.7777 -3.79073C45.93 -1.67945 46.2828 0.776421 45.7712 3.12667C45.2597 5.47691 43.9182 7.56404 41.9927 9.00545C40.0672 10.4469 37.6866 11.1459 35.2875 10.9746C32.8883 10.8032 30.6313 9.77281 28.9302 8.07235C28.7005 7.84267 28.7004 7.47022 28.9301 7.24046C29.1598 7.01069 29.5322 7.01063 29.762 7.2403C31.2629 8.74072 33.2544 9.64987 35.3713 9.80109C37.4882 9.95231 39.5887 9.33546 41.2877 8.06363C42.9867 6.7918 44.1703 4.95021 44.6217 2.87647C45.073 0.802723 44.7618 -1.36422 43.7451 -3.22711C42.7283 -5.09001 41.0742 -6.52403 39.086 -7.26629Z" fill="#CECECE"/>
<path fill-rule="evenodd" clip-rule="evenodd" d="M38.0485 -3.78125C36.9435 -4.28647 35.6933 -4.37646 34.5272 -4.03471C33.3612 -3.69296 32.3574 -2.94238 31.6998 -1.92056C31.5592 -1.70201 31.268 -1.63884 31.0495 -1.77949C30.8309 -1.92013 30.7677 -2.21132 30.9084 -2.42987C31.6884 -3.64206 32.8792 -4.53248 34.2625 -4.93789C35.6458 -5.34331 37.1289 -5.23656 38.4399 -4.63721C39.7508 -4.03787 40.8019 -2.98608 41.4003 -1.67468C41.9987 -0.363276 42.1043 1.11987 41.6979 2.50287C41.2915 3.88587 40.4002 5.07605 39.1875 5.85522C37.9748 6.6344 36.5218 6.95035 35.095 6.74516C33.6682 6.53997 32.3632 5.8274 31.4191 4.73806C30.4751 3.64872 29.9553 2.25561 29.9551 0.814135C29.955 0.554236 30.1657 0.343513 30.4256 0.343473C30.6855 0.343431 30.8962 0.554088 30.8963 0.813986C30.8964 2.02909 31.3346 3.20341 32.1304 4.12167C32.9261 5.03993 34.0262 5.6406 35.229 5.81357C36.4317 5.98653 37.6565 5.7202 38.6788 5.06339C39.701 4.40659 40.4523 3.40332 40.7949 2.23752C41.1375 1.07171 41.0484 -0.178515 40.544 -1.28397C40.0396 -2.38942 39.1536 -3.27603 38.0485 -3.78125Z" fill="#CECECE"/>
<path fill-rule="evenodd" clip-rule="evenodd" d="M42.5749 -1.67001C42.8794 -1.78302 43.218 -1.62773 43.331 -1.32314C44.0117 0.511399 43.9357 2.54121 43.1199 4.31977C42.304 6.09832 40.8151 7.47995 38.9805 8.16071C38.676 8.27374 38.3374 8.11845 38.2244 7.81387C38.1114 7.5093 38.2667 7.17076 38.5712 7.05774C40.1132 6.48553 41.3648 5.3242 42.0505 3.82924C42.7363 2.33428 42.8001 0.628133 42.228 -0.913885C42.115 -1.21847 42.2703 -1.557 42.5749 -1.67001Z" fill="#CECECE"/>
<path fill-rule="evenodd" clip-rule="evenodd" d="M31.491 -4.61348C31.7054 -4.36942 31.6814 -3.99775 31.4373 -3.78333C30.6577 -3.09836 30.0626 -2.22854 29.7066 -1.25371C29.3507 -0.278871 29.2453 0.769755 29.4001 1.79593C29.4486 2.11717 29.2275 2.41687 28.9062 2.46534C28.585 2.51381 28.2853 2.29269 28.2368 1.97145C28.0526 0.75044 28.178 -0.497289 28.6015 -1.65722C29.025 -2.81715 29.7331 -3.85212 30.6608 -4.66714C30.9049 -4.88157 31.2765 -4.85754 31.491 -4.61348Z" fill="#CECECE"/>
<path fill-rule="evenodd" clip-rule="evenodd" d="M35.9469 -2.50322C35.0671 -2.50322 34.2233 -2.15371 33.6012 -1.53159C32.9791 -0.909471 32.6296 -0.0656948 32.6296 0.814116C32.6296 1.69393 32.9791 2.5377 33.6012 3.15982C34.2233 3.78195 35.0671 4.13145 35.9469 4.13145C36.2718 4.13145 36.5352 4.39481 36.5352 4.71968C36.5352 5.04456 36.2718 5.30792 35.9469 5.30792C34.7551 5.30792 33.6121 4.83447 32.7693 3.99171C31.9266 3.14896 31.4531 2.00595 31.4531 0.814116C31.4531 -0.377715 31.9266 -1.52073 32.7693 -2.36348C33.6121 -3.20623 34.7551 -3.67969 35.9469 -3.67969C36.2718 -3.67969 36.5352 -3.41633 36.5352 -3.09145C36.5352 -2.76658 36.2718 -2.50322 35.9469 -2.50322Z" fill="#CECECE"/>
<path d="M29.2354 3.61589C29.5176 3.61589 29.7463 3.38719 29.7463 3.10507C29.7463 2.82294 29.5176 2.59424 29.2354 2.59424C28.9533 2.59424 28.7246 2.82294 28.7246 3.10507C28.7246 3.38719 28.9533 3.61589 29.2354 3.61589Z" fill="#CECECE"/>
<path d="M36.2228 -0.735226C35.3668 -0.735226 34.6704 -0.0388495 34.6704 0.817114C34.6704 1.67308 35.3668 2.36945 36.2228 2.36945C37.0787 2.36945 37.7751 1.67308 37.7751 0.817114C37.7751 -0.0388495 37.0787 -0.735226 36.2228 -0.735226ZM36.2228 -1.75525C37.6434 -1.75525 38.7951 -0.603563 38.7951 0.817114C38.7951 2.23779 37.6434 3.38948 36.2228 3.38948C34.8021 3.38948 33.6504 2.23779 33.6504 0.817114C33.6504 -0.603563 34.8021 -1.75525 36.2228 -1.75525Z" fill="#CECECE"/>
<path fill-rule="evenodd" clip-rule="evenodd" d="M61.086 -7.26629C59.0977 -8.00854 56.9085 -8.0093 54.9197 -7.26841C52.931 -6.52753 51.2759 -5.09465 50.2579 -3.23245C49.2398 -1.37026 48.9271 0.796471 49.377 2.87053C49.4459 3.18802 49.2444 3.50122 48.9269 3.57009C48.6094 3.63897 48.2962 3.43742 48.2273 3.11993C47.7174 0.769336 48.0718 -1.68629 49.2256 -3.79678C50.3793 -5.90727 52.2551 -7.5312 54.509 -8.37087C56.763 -9.21054 59.2441 -9.20968 61.4974 -8.36846C63.7508 -7.52724 65.6254 -5.90201 66.7777 -3.79073C67.93 -1.67945 68.2828 0.776421 67.7712 3.12667C67.2597 5.47691 65.9182 7.56404 63.9927 9.00545C62.0672 10.4469 59.6866 11.1459 57.2875 10.9746C54.8883 10.8032 52.6313 9.77281 50.9302 8.07235C50.7005 7.84267 50.7004 7.47022 50.9301 7.24046C51.1598 7.01069 51.5322 7.01063 51.762 7.2403C53.2629 8.74072 55.2544 9.64987 57.3713 9.80109C59.4882 9.95231 61.5887 9.33546 63.2877 8.06363C64.9867 6.7918 66.1703 4.95021 66.6217 2.87647C67.073 0.802723 66.7618 -1.36422 65.7451 -3.22711C64.7283 -5.09001 63.0742 -6.52403 61.086 -7.26629Z" fill="#CECECE"/>
<path fill-rule="evenodd" clip-rule="evenodd" d="M-4.91404 40.7337C-6.9023 39.9915 -9.09148 39.9907 -11.0803 40.7316C-13.069 41.4725 -14.7241 42.9054 -15.7421 44.7675C-16.7602 46.6297 -17.0729 48.7965 -16.623 50.8705C-16.5541 51.188 -16.7556 51.5012 -17.0731 51.5701C-17.3906 51.639 -17.7038 51.4374 -17.7727 51.1199C-18.2826 48.7693 -17.9282 46.3137 -16.7744 44.2032C-15.6207 42.0927 -13.7449 40.4688 -11.491 39.6291C-9.23701 38.7895 -6.75595 38.7903 -4.50258 39.6315C-2.24922 40.4728 -0.374561 42.098 0.777735 44.2093C1.93003 46.3206 2.28275 48.7764 1.77123 51.1267C1.25971 53.4769 -0.0817833 55.564 -2.00731 57.0054C-3.93283 58.4469 -6.31338 59.1459 -8.71253 58.9746C-11.1117 58.8032 -13.3687 57.7728 -15.0698 56.0723C-15.2995 55.8427 -15.2996 55.4702 -15.0699 55.2405C-14.8402 55.0107 -14.4678 55.0106 -14.238 55.2403C-12.7371 56.7407 -10.7456 57.6499 -8.6287 57.8011C-6.5118 57.9523 -4.41133 57.3355 -2.71233 56.0636C-1.01334 54.7918 0.170328 52.9502 0.62167 50.8765C1.07301 48.8027 0.761789 46.6358 -0.254942 44.7729C-1.27168 42.91 -2.92579 41.476 -4.91404 40.7337Z" fill="#CECECE"/>
<path fill-rule="evenodd" clip-rule="evenodd" d="M17.086 40.7337C15.0977 39.9915 12.9085 39.9907 10.9197 40.7316C8.93098 41.4725 7.27587 42.9054 6.25785 44.7675C5.23984 46.6297 4.92713 48.7965 5.37704 50.8705C5.44591 51.188 5.24437 51.5012 4.92688 51.5701C4.60939 51.639 4.29618 51.4374 4.22731 51.1199C3.71741 48.7693 4.07182 46.3137 5.22557 44.2032C6.37932 42.0927 8.2551 40.4688 10.509 39.6291C12.763 38.7895 15.2441 38.7903 17.4974 39.6315C19.7508 40.4728 21.6254 42.098 22.7777 44.2093C23.93 46.3206 24.2828 48.7764 23.7712 51.1267C23.2597 53.4769 21.9182 55.564 19.9927 57.0054C18.0672 58.4469 15.6866 59.1459 13.2875 58.9746C10.8883 58.8032 8.63133 57.7728 6.93024 56.0723C6.70047 55.8427 6.70041 55.4702 6.93008 55.2405C7.15976 55.0107 7.53221 55.0106 7.76197 55.2403C9.26294 56.7407 11.2544 57.6499 13.3713 57.8011C15.4882 57.9523 17.5887 57.3355 19.2877 56.0636C20.9867 54.7918 22.1703 52.9502 22.6217 50.8765C23.073 48.8027 22.7618 46.6358 21.7451 44.7729C20.7283 42.91 19.0742 41.476 17.086 40.7337Z" fill="#CECECE"/>
<path fill-rule="evenodd" clip-rule="evenodd" d="M16.0485 44.2188C14.9435 43.7135 13.6933 43.6235 12.5272 43.9653C11.3612 44.307 10.3574 45.0576 9.69985 46.0794C9.55921 46.298 9.26802 46.3612 9.04946 46.2205C8.8309 46.0799 8.76774 45.7887 8.90838 45.5701C9.68843 44.3579 10.8792 43.4675 12.2625 43.0621C13.6458 42.6567 15.1289 42.7634 16.4399 43.3628C17.7508 43.9621 18.8019 45.0139 19.4003 46.3253C19.9987 47.6367 20.1043 49.1199 19.6979 50.5029C19.2915 51.8859 18.4002 53.0761 17.1875 53.8552C15.9748 54.6344 14.5218 54.9503 13.095 54.7452C11.6682 54.54 10.3632 53.8274 9.41912 52.7381C8.47508 51.6487 7.95531 50.2556 7.95508 48.8141C7.95504 48.5542 8.16569 48.3435 8.42559 48.3435C8.68549 48.3434 8.89621 48.5541 8.89625 48.814C8.89645 50.0291 9.33459 51.2034 10.1304 52.1217C10.9261 53.0399 12.0262 53.6406 13.229 53.8136C14.4317 53.9865 15.6565 53.7202 16.6788 53.0634C17.701 52.4066 18.4523 51.4033 18.7949 50.2375C19.1375 49.0717 19.0484 47.8215 18.544 46.716C18.0396 45.6106 17.1536 44.724 16.0485 44.2188Z" fill="#CECECE"/>
<path fill-rule="evenodd" clip-rule="evenodd" d="M20.5749 46.33C20.8794 46.217 21.218 46.3723 21.331 46.6769C22.0117 48.5114 21.9357 50.5412 21.1199 52.3198C20.304 54.0983 18.8151 55.48 16.9805 56.1607C16.676 56.2737 16.3374 56.1185 16.2244 55.8139C16.1114 55.5093 16.2667 55.1708 16.5712 55.0577C18.1132 54.4855 19.3648 53.3242 20.0505 51.8292C20.7363 50.3343 20.8001 48.6281 20.228 47.0861C20.115 46.7815 20.2703 46.443 20.5749 46.33Z" fill="#CECECE"/>
<path fill-rule="evenodd" clip-rule="evenodd" d="M9.49095 43.3865C9.70538 43.6306 9.68135 44.0022 9.43729 44.2167C8.65767 44.9016 8.06257 45.7715 7.70662 46.7463C7.35068 47.7211 7.24529 48.7698 7.40012 49.7959C7.44859 50.1172 7.22747 50.4169 6.90623 50.4653C6.58499 50.5138 6.28528 50.2927 6.23682 49.9715C6.05258 48.7504 6.17799 47.5027 6.60152 46.3428C7.02505 45.1829 7.73313 44.1479 8.66079 43.3329C8.90485 43.1184 9.27653 43.1425 9.49095 43.3865Z" fill="#CECECE"/>
<path d="M20.294 46.2636C20.5762 46.2636 20.8049 46.0349 20.8049 45.7528C20.8049 45.4706 20.5762 45.2419 20.294 45.2419C20.0119 45.2419 19.7832 45.4706 19.7832 45.7528C19.7832 46.0349 20.0119 46.2636 20.294 46.2636Z" fill="#CECECE"/>
<path fill-rule="evenodd" clip-rule="evenodd" d="M13.9469 45.4968C13.0671 45.4968 12.2233 45.8463 11.6012 46.4684C10.9791 47.0905 10.6296 47.9343 10.6296 48.8141C10.6296 49.6939 10.9791 50.5377 11.6012 51.1598C12.2233 51.7819 13.0671 52.1314 13.9469 52.1314C14.2718 52.1314 14.5352 52.3948 14.5352 52.7197C14.5352 53.0446 14.2718 53.3079 13.9469 53.3079C12.7551 53.3079 11.6121 52.8345 10.7693 51.9917C9.92658 51.149 9.45312 50.0059 9.45312 48.8141C9.45312 47.6223 9.92658 46.4793 10.7693 45.6365C11.6121 44.7938 12.7551 44.3203 13.9469 44.3203C14.2718 44.3203 14.5352 44.5837 14.5352 44.9085C14.5352 45.2334 14.2718 45.4968 13.9469 45.4968Z" fill="#CECECE"/>
<path d="M14.2228 47.2648C13.3668 47.2648 12.6704 47.9612 12.6704 48.8171C12.6704 49.6731 13.3668 50.3695 14.2228 50.3695C15.0787 50.3695 15.7751 49.6731 15.7751 48.8171C15.7751 47.9612 15.0787 47.2648 14.2228 47.2648ZM14.2228 46.2448C15.6434 46.2448 16.7951 47.3964 16.7951 48.8171C16.7951 50.2378 15.6434 51.3895 14.2228 51.3895C12.8021 51.3895 11.6504 50.2378 11.6504 48.8171C11.6504 47.3964 12.8021 46.2448 14.2228 46.2448Z" fill="#CECECE"/>
<path fill-rule="evenodd" clip-rule="evenodd" d="M39.086 40.7337C37.0977 39.9915 34.9085 39.9907 32.9197 40.7316C30.931 41.4725 29.2759 42.9054 28.2579 44.7675C27.2398 46.6297 26.9271 48.7965 27.377 50.8705C27.4459 51.188 27.2444 51.5012 26.9269 51.5701C26.6094 51.639 26.2962 51.4374 26.2273 51.1199C25.7174 48.7693 26.0718 46.3137 27.2256 44.2032C28.3793 42.0927 30.2551 40.4688 32.509 39.6291C34.763 38.7895 37.2441 38.7903 39.4974 39.6315C41.7508 40.4728 43.6254 42.098 44.7777 44.2093C45.93 46.3206 46.2828 48.7764 45.7712 51.1267C45.2597 53.4769 43.9182 55.564 41.9927 57.0054C40.0672 58.4469 37.6866 59.1459 35.2875 58.9746C32.8883 58.8032 30.6313 57.7728 28.9302 56.0723C28.7005 55.8427 28.7004 55.4702 28.9301 55.2405C29.1598 55.0107 29.5322 55.0106 29.762 55.2403C31.2629 56.7407 33.2544 57.6499 35.3713 57.8011C37.4882 57.9523 39.5887 57.3355 41.2877 56.0636C42.9867 54.7918 44.1703 52.9502 44.6217 50.8765C45.073 48.8027 44.7618 46.6358 43.7451 44.7729C42.7283 42.91 41.0742 41.476 39.086 40.7337Z" fill="#CECECE"/>
<path fill-rule="evenodd" clip-rule="evenodd" d="M38.0485 44.2188C36.9435 43.7135 35.6933 43.6235 34.5272 43.9653C33.3612 44.307 32.3574 45.0576 31.6998 46.0794C31.5592 46.298 31.268 46.3612 31.0495 46.2205C30.8309 46.0799 30.7677 45.7887 30.9084 45.5701C31.6884 44.3579 32.8792 43.4675 34.2625 43.0621C35.6458 42.6567 37.1289 42.7634 38.4399 43.3628C39.7508 43.9621 40.8019 45.0139 41.4003 46.3253C41.9987 47.6367 42.1043 49.1199 41.6979 50.5029C41.2915 51.8859 40.4002 53.0761 39.1875 53.8552C37.9748 54.6344 36.5218 54.9503 35.095 54.7452C33.6682 54.54 32.3632 53.8274 31.4191 52.7381C30.4751 51.6487 29.9553 50.2556 29.9551 48.8141C29.955 48.5542 30.1657 48.3435 30.4256 48.3435C30.6855 48.3434 30.8962 48.5541 30.8963 48.814C30.8964 50.0291 31.3346 51.2034 32.1304 52.1217C32.9261 53.0399 34.0262 53.6406 35.229 53.8136C36.4317 53.9865 37.6565 53.7202 38.6788 53.0634C39.701 52.4066 40.4523 51.4033 40.7949 50.2375C41.1375 49.0717 41.0484 47.8215 40.544 46.716C40.0396 45.6106 39.1536 44.724 38.0485 44.2188Z" fill="#CECECE"/>
<path fill-rule="evenodd" clip-rule="evenodd" d="M42.5749 46.33C42.8794 46.217 43.218 46.3723 43.331 46.6769C44.0117 48.5114 43.9357 50.5412 43.1199 52.3198C42.304 54.0983 40.8151 55.48 38.9805 56.1607C38.676 56.2737 38.3374 56.1185 38.2244 55.8139C38.1114 55.5093 38.2667 55.1708 38.5712 55.0577C40.1132 54.4855 41.3648 53.3242 42.0505 51.8292C42.7363 50.3343 42.8001 48.6281 42.228 47.0861C42.115 46.7815 42.2703 46.443 42.5749 46.33Z" fill="#CECECE"/>
<path fill-rule="evenodd" clip-rule="evenodd" d="M31.491 43.3865C31.7054 43.6306 31.6814 44.0022 31.4373 44.2167C30.6577 44.9016 30.0626 45.7715 29.7066 46.7463C29.3507 47.7211 29.2453 48.7698 29.4001 49.7959C29.4486 50.1172 29.2275 50.4169 28.9062 50.4653C28.585 50.5138 28.2853 50.2927 28.2368 49.9715C28.0526 48.7504 28.178 47.5027 28.6015 46.3428C29.025 45.1829 29.7331 44.1479 30.6608 43.3329C30.9049 43.1184 31.2765 43.1425 31.491 43.3865Z" fill="#CECECE"/>
<path d="M42.294 46.2636C42.5762 46.2636 42.8049 46.0349 42.8049 45.7528C42.8049 45.4706 42.5762 45.2419 42.294 45.2419C42.0119 45.2419 41.7832 45.4706 41.7832 45.7528C41.7832 46.0349 42.0119 46.2636 42.294 46.2636Z" fill="#CECECE"/>
<path fill-rule="evenodd" clip-rule="evenodd" d="M35.9469 45.4968C35.0671 45.4968 34.2233 45.8463 33.6012 46.4684C32.9791 47.0905 32.6296 47.9343 32.6296 48.8141C32.6296 49.6939 32.9791 50.5377 33.6012 51.1598C34.2233 51.7819 35.0671 52.1314 35.9469 52.1314C36.2718 52.1314 36.5352 52.3948 36.5352 52.7197C36.5352 53.0446 36.2718 53.3079 35.9469 53.3079C34.7551 53.3079 33.6121 52.8345 32.7693 51.9917C31.9266 51.149 31.4531 50.0059 31.4531 48.8141C31.4531 47.6223 31.9266 46.4793 32.7693 45.6365C33.6121 44.7938 34.7551 44.3203 35.9469 44.3203C36.2718 44.3203 36.5352 44.5837 36.5352 44.9085C36.5352 45.2334 36.2718 45.4968 35.9469 45.4968Z" fill="#CECECE"/>
<path d="M36.2228 47.2648C35.3668 47.2648 34.6704 47.9612 34.6704 48.8171C34.6704 49.6731 35.3668 50.3695 36.2228 50.3695C37.0787 50.3695 37.7751 49.6731 37.7751 48.8171C37.7751 47.9612 37.0787 47.2648 36.2228 47.2648ZM36.2228 46.2448C37.6434 46.2448 38.7951 47.3964 38.7951 48.8171C38.7951 50.2378 37.6434 51.3895 36.2228 51.3895C34.8021 51.3895 33.6504 50.2378 33.6504 48.8171C33.6504 47.3964 34.8021 46.2448 36.2228 46.2448Z" fill="#CECECE"/>
<path fill-rule="evenodd" clip-rule="evenodd" d="M61.086 40.7337C59.0977 39.9915 56.9085 39.9907 54.9197 40.7316C52.931 41.4725 51.2759 42.9054 50.2579 44.7675C49.2398 46.6297 48.9271 48.7965 49.377 50.8705C49.4459 51.188 49.2444 51.5012 48.9269 51.5701C48.6094 51.639 48.2962 51.4374 48.2273 51.1199C47.7174 48.7693 48.0718 46.3137 49.2256 44.2032C50.3793 42.0927 52.2551 40.4688 54.509 39.6291C56.763 38.7895 59.2441 38.7903 61.4974 39.6315C63.7508 40.4728 65.6254 42.098 66.7777 44.2093C67.93 46.3206 68.2828 48.7764 67.7712 51.1267C67.2597 53.4769 65.9182 55.564 63.9927 57.0054C62.0672 58.4469 59.6866 59.1459 57.2875 58.9746C54.8883 58.8032 52.6313 57.7728 50.9302 56.0723C50.7005 55.8427 50.7004 55.4702 50.9301 55.2405C51.1598 55.0107 51.5322 55.0106 51.762 55.2403C53.2629 56.7407 55.2544 57.6499 57.3713 57.8011C59.4882 57.9523 61.5887 57.3355 63.2877 56.0636C64.9867 54.7918 66.1703 52.9502 66.6217 50.8765C67.073 48.8027 66.7618 46.6358 65.7451 44.7729C64.7283 42.91 63.0742 41.476 61.086 40.7337Z" fill="#CECECE"/>
</g>
<rect x="0.5" y="0.5" width="49" height="49" rx="2.5" stroke="#E8E8E8"/>
<defs>
<clipPath id="clip0">
</clipPath>
</defs>
</svg>
