<svg width="48" height="48" viewBox="0 0 48 48" fill="none" xmlns="http://www.w3.org/2000/svg">
<path d="M0 1.60012C0 0.716468 0.716344 0.00012207 1.6 0.00012207H46.4C47.2837 0.00012207 48 0.716467 48 1.60012V46.4001C48 47.2838 47.2837 48.0001 46.4 48.0001H1.6C0.716346 48.0001 0 47.2838 0 46.4001V1.60012Z" fill="url(#paint0_linear)"/>
<path d="M19.8342 34.0001L18.592 29.922H12.3459L11.1038 34.0001H7.18969L13.2366 16.797H17.678L23.7483 34.0001H19.8342ZM17.7248 26.8751C16.5764 23.1798 15.928 21.09 15.7795 20.6056C15.6389 20.1212 15.5373 19.7384 15.4748 19.4572C15.217 20.4572 14.4788 22.9298 13.26 26.8751H17.7248ZM36.8845 34.0001L35.6423 29.922H29.3962L28.1541 34.0001H24.24L30.2869 16.797H34.7283L40.7986 34.0001H36.8845ZM34.7752 26.8751C33.6267 23.1798 32.9783 21.09 32.8298 20.6056C32.6892 20.1212 32.5877 19.7384 32.5252 19.4572C32.2673 20.4572 31.5291 22.9298 30.3103 26.8751H34.7752Z" fill="white"/>
<defs>
<linearGradient id="paint0_linear" x1="1.78814e-07" y1="24.0001" x2="48" y2="24.0001" gradientUnits="userSpaceOnUse">
<stop stop-color="#1286C7"/>
<stop offset="1" stop-color="#5956F2"/>
</linearGradient>
</defs>
</svg>
