<svg width="48" height="48" viewBox="0 0 48 48" fill="none" xmlns="http://www.w3.org/2000/svg">
<path d="M0 1.60012C0 0.716468 0.716344 0.00012207 1.6 0.00012207H46.4C47.2837 0.00012207 48 0.716467 48 1.60012V46.4001C48 47.2838 47.2837 48.0001 46.4 48.0001H1.6C0.716346 48.0001 0 47.2838 0 46.4001V1.60012Z" fill="url(#paint0_linear)"/>
<path d="M19.7366 34.0001L18.4944 29.922H12.2483L11.0061 34.0001H7.09203L13.1389 16.797H17.5803L23.6506 34.0001H19.7366ZM17.6272 26.8751C16.4788 23.1798 15.8303 21.09 15.6819 20.6056C15.5413 20.1212 15.4397 19.7384 15.3772 19.4572C15.1194 20.4572 14.3811 22.9298 13.1623 26.8751H17.6272ZM40.5134 25.2697C40.5134 28.09 39.7087 30.2501 38.0994 31.7501C36.4978 33.2501 34.1814 34.0001 31.1502 34.0001H26.2986V16.8673H31.6775C34.4744 16.8673 36.6462 17.6056 38.1931 19.0822C39.74 20.5587 40.5134 22.6212 40.5134 25.2697ZM36.74 25.3634C36.74 21.6837 35.115 19.8439 31.865 19.8439H29.9314V31.0001H31.49C34.99 31.0001 36.74 29.1212 36.74 25.3634Z" fill="white"/>
<defs>
<linearGradient id="paint0_linear" x1="1.8483e-07" y1="23.5473" x2="48" y2="23.5473" gradientUnits="userSpaceOnUse">
<stop stop-color="#FF0000"/>
<stop offset="0.989583" stop-color="#EA5FED"/>
</linearGradient>
</defs>
</svg>
