<svg width="48" height="48" viewBox="0 0 48 48" fill="none" xmlns="http://www.w3.org/2000/svg">
<path d="M0 1.60012C0 0.716468 0.716344 0.00012207 1.6 0.00012207H46.4C47.2837 0.00012207 48 0.716467 48 1.60012V46.4001C48 47.2838 47.2837 48.0001 46.4 48.0001H1.6C0.716346 48.0001 0 47.2838 0 46.4001V1.60012Z" fill="url(#paint0_linear)"/>
<path d="M20.967 34.0001L19.7248 29.922H13.4788L12.2366 34.0001H8.3225L14.3694 16.797H18.8108L24.8811 34.0001H20.967ZM18.8577 26.8751C17.7092 23.1798 17.0608 21.09 16.9123 20.6056C16.7717 20.1212 16.6702 19.7384 16.6077 19.4572C16.3498 20.4572 15.6116 22.9298 14.3928 26.8751H18.8577ZM34.8064 19.6447C33.4392 19.6447 32.3806 20.1603 31.6306 21.1915C30.8806 22.215 30.5056 23.6447 30.5056 25.4806C30.5056 29.3009 31.9392 31.2111 34.8064 31.2111C36.0095 31.2111 37.4666 30.9103 39.1775 30.3087V33.3556C37.7712 33.9415 36.2009 34.2345 34.4666 34.2345C31.9744 34.2345 30.0681 33.4806 28.7478 31.9728C27.4275 30.4572 26.7673 28.2853 26.7673 25.4572C26.7673 23.6759 27.0916 22.1173 27.74 20.7814C28.3884 19.4376 29.3181 18.4103 30.5291 17.6993C31.7478 16.9806 33.1736 16.6212 34.8064 16.6212C36.4705 16.6212 38.1423 17.0236 39.822 17.8282L38.6502 20.7814C38.0095 20.4767 37.365 20.2111 36.7166 19.9845C36.0681 19.7579 35.4314 19.6447 34.8064 19.6447Z" fill="white"/>
<defs>
<linearGradient id="paint0_linear" x1="1.78814e-07" y1="24.0001" x2="48" y2="24.0001" gradientUnits="userSpaceOnUse">
<stop stop-color="#12BCC7"/>
<stop offset="1" stop-color="#5956F2"/>
</linearGradient>
</defs>
</svg>
