<svg width="48" height="48" viewBox="0 0 48 48" fill="none" xmlns="http://www.w3.org/2000/svg">
<path d="M0 1.60012C0 0.716468 0.716344 0.00012207 1.6 0.00012207H46.4C47.2837 0.00012207 48 0.716467 48 1.60012V46.4001C48 47.2838 47.2837 48.0001 46.4 48.0001H1.6C0.716346 48.0001 0 47.2838 0 46.4001V1.60012Z" fill="url(#paint0_linear)"/>
<path d="M20.0569 34.0001L18.8147 29.922H12.5686L11.3264 34.0001H7.41234L13.4592 16.797H17.9006L23.9709 34.0001H20.0569ZM17.9475 26.8751C16.7991 23.1798 16.1506 21.09 16.0022 20.6056C15.8616 20.1212 15.76 19.7384 15.6975 19.4572C15.4397 20.4572 14.7014 22.9298 13.4827 26.8751H17.9475ZM26.6189 16.8673H31.9509C34.3806 16.8673 36.1423 17.215 37.2361 17.9103C38.3377 18.5978 38.8884 19.6954 38.8884 21.2032C38.8884 22.2267 38.6462 23.0665 38.1619 23.7228C37.6853 24.379 37.0486 24.7736 36.2517 24.9064V25.0236C37.3377 25.2657 38.1189 25.7189 38.5955 26.3829C39.0798 27.047 39.322 27.9298 39.322 29.0314C39.322 30.5939 38.7556 31.8126 37.6228 32.6876C36.4978 33.5626 34.9666 34.0001 33.0291 34.0001H26.6189V16.8673ZM30.2517 23.6525H32.3611C33.3455 23.6525 34.0564 23.5001 34.4939 23.1954C34.9392 22.8907 35.1619 22.3868 35.1619 21.6837C35.1619 21.0275 34.9197 20.5587 34.4353 20.2775C33.9587 19.9884 33.2009 19.8439 32.1619 19.8439H30.2517V23.6525ZM30.2517 26.5353V31.0001H32.6189C33.6189 31.0001 34.3572 30.8087 34.8337 30.4259C35.3103 30.0431 35.5486 29.4572 35.5486 28.6681C35.5486 27.2462 34.533 26.5353 32.5017 26.5353H30.2517Z" fill="white"/>
<defs>
<linearGradient id="paint0_linear" x1="1.8483e-07" y1="23.5473" x2="48" y2="23.5473" gradientUnits="userSpaceOnUse">
<stop stop-color="#FF6B00"/>
<stop offset="0.989583" stop-color="#ED9A5F"/>
</linearGradient>
</defs>
</svg>
