<svg width="50" height="50" viewBox="0 0 50 50" fill="none" xmlns="http://www.w3.org/2000/svg">
<rect x="0.5" y="0.500122" width="49" height="49" rx="2.5" fill="white" stroke="#E8E8E8"/>
<g clip-path="url(#clip0)">
<path d="M41.2035 22.5117C42.6765 22.5117 43.9235 23.5578 43.9235 24.903V27.2943H41.2035C39.7306 27.2943 38.4835 26.2479 38.4835 24.9026C38.4835 23.5578 39.7306 22.5117 41.2035 22.5117ZM41.2035 21.6647C40.7269 21.6634 40.2547 21.7449 39.8141 21.9047C39.3735 22.0645 38.9732 22.2992 38.6361 22.5956C38.2991 22.8919 38.032 23.2439 37.8503 23.6313C37.6686 24.0187 37.5757 24.4339 37.5772 24.853C37.5757 25.2721 37.6685 25.6873 37.8502 26.0748C38.0319 26.4622 38.2989 26.8143 38.636 27.1106C38.973 27.407 39.3734 27.6418 39.814 27.8016C40.2547 27.9614 40.7269 28.043 41.2035 28.0417H44.8294V24.853C44.8859 23.1092 43.2435 21.6647 41.2035 21.6647Z" fill="#F16726"/>
<path d="M44.9998 28.2405H41.2041C40.4532 28.2406 39.7192 28.0448 39.0948 27.6781C38.4705 27.3113 37.9838 26.79 37.6964 26.18C37.409 25.57 37.3338 24.8988 37.4803 24.2513C37.6267 23.6037 37.9883 23.0089 38.5193 22.542C39.0502 22.0752 39.7267 21.7572 40.4631 21.6285C41.1995 21.4997 41.9629 21.5658 42.6566 21.8185C43.3503 22.0712 43.9432 22.4991 44.3603 23.0481C44.7774 23.5971 44.9999 24.2426 44.9998 24.9028V28.2405ZM41.2041 21.8143C39.2775 21.8143 37.6911 23.2087 37.6911 24.9028C37.6911 26.5965 39.2775 27.9918 41.2041 27.9918H44.717V24.9028C44.717 23.1591 43.1302 21.8138 41.2041 21.8138V21.8143ZM44.0935 27.3939H41.2605C39.6747 27.3939 38.4276 26.2476 38.4276 24.9028C38.4276 23.558 39.7311 22.4118 41.2605 22.4118C42.8469 22.4118 44.0935 23.558 44.0935 24.9028V27.3939ZM41.2041 22.6112C40.8688 22.61 40.5367 22.6671 40.2267 22.7793C39.9167 22.8915 39.635 23.0566 39.398 23.2651C39.161 23.4735 38.9732 23.7212 38.8456 23.9937C38.718 24.2663 38.653 24.5584 38.6544 24.8532C38.6531 25.1479 38.7181 25.4399 38.8457 25.7125C38.9734 25.985 39.1611 26.2326 39.3982 26.441C39.6352 26.6494 39.9168 26.8144 40.2268 26.9266C40.5367 27.0388 40.8689 27.0959 41.2041 27.0947H43.7537V24.8527C43.7537 23.6569 42.6205 22.6112 41.2041 22.6112ZM23.2441 22.6373C24.717 22.6373 25.9636 23.6834 25.9636 25.0282V27.4199H23.2436C21.7707 27.4199 20.5245 26.3734 20.5245 25.0282C20.5245 23.6834 21.7711 22.6369 23.2441 22.6369V22.6373ZM23.2441 21.7898C22.7675 21.7886 22.2953 21.8702 21.8547 22.03C21.4141 22.1898 21.0138 22.4247 20.6768 22.721C20.3398 23.0174 20.0728 23.3694 19.8911 23.7568C19.7095 24.1443 19.6167 24.5595 19.6182 24.9785C19.6168 25.3976 19.7096 25.8127 19.8913 26.2001C20.073 26.5875 20.34 26.9395 20.677 27.2358C21.014 27.5321 21.4143 27.7669 21.8548 27.9267C22.2954 28.0865 22.7675 28.1681 23.2441 28.1668H26.8699V24.9785C26.8714 24.5595 26.7787 24.1443 26.597 23.7568C26.4153 23.3694 26.1483 23.0174 25.8113 22.721C25.4743 22.4247 25.074 22.1898 24.6334 22.03C24.1928 21.8702 23.7207 21.7886 23.2441 21.7898Z" fill="#F16726"/>
<path d="M27.0397 28.3663H23.2439C22.4931 28.3664 21.7591 28.1707 21.1347 27.804C20.5104 27.4372 20.0237 26.9159 19.7363 26.306C19.4489 25.696 19.3737 25.0248 19.5201 24.3773C19.6665 23.7297 20.0281 23.1349 20.559 22.668C21.0898 22.2012 21.7663 21.8832 22.5027 21.7544C23.2391 21.6255 24.0024 21.6916 24.6961 21.9443C25.3898 22.1969 25.9827 22.6247 26.3999 23.1737C26.817 23.7226 27.0397 24.368 27.0397 25.0283V28.3663ZM23.2439 21.9397C21.3173 21.9397 19.731 23.3342 19.731 25.0283C19.731 26.7223 21.3173 28.1172 23.2439 28.1172H26.7569V25.0283C26.7569 23.2845 25.1701 21.9397 23.2439 21.9397ZM26.0769 27.5193H23.2439C21.6576 27.5193 20.411 26.3735 20.411 25.0283C20.411 23.6834 21.7145 22.5372 23.2439 22.5372C24.7733 22.5372 26.0769 23.6834 26.0769 25.0283V27.5193ZM23.2439 22.7367C22.9087 22.7354 22.5765 22.7926 22.2665 22.9048C21.9566 23.017 21.6749 23.1821 21.4379 23.3905C21.2008 23.599 21.0131 23.8466 20.8855 24.1192C20.7578 24.3917 20.6929 24.6838 20.6943 24.9786C20.6929 25.2734 20.7578 25.5655 20.8855 25.838C21.0131 26.1106 21.2008 26.3583 21.4379 26.5667C21.6749 26.7751 21.9566 26.9402 22.2665 27.0525C22.5765 27.1647 22.9087 27.2218 23.2439 27.2205H25.7936V24.9786C25.7936 23.7827 24.6604 22.7367 23.2439 22.7367ZM5.11311 22.1888V19.5981C5.11311 19.4487 5.16958 19.349 5.22652 19.2492C5.33993 19.1499 5.45335 19.0999 5.56676 19.0999C5.73617 19.0999 5.85005 19.1495 5.96299 19.2492C6.07641 19.349 6.13335 19.4487 6.13335 19.5981V22.9858C6.41664 22.637 6.81288 22.3382 7.32299 22.0891C7.77617 21.8896 8.28629 21.7899 8.85241 21.7899C9.53288 21.7899 10.1559 21.9397 10.6661 22.2385C11.2326 22.5372 11.6289 22.8861 11.9691 23.3847C12.3089 23.8825 12.4223 24.4303 12.4223 25.0283C12.4223 25.6262 12.2524 26.1745 11.9122 26.6723C11.5724 27.1705 11.1757 27.5694 10.6091 27.8185C10.0425 28.1172 9.41946 28.2666 8.73946 28.2666C8.05946 28.2666 7.43593 28.1172 6.86982 27.8185C6.30323 27.5193 5.85005 27.1208 5.56629 26.6723C5.22699 26.1741 5.05664 25.6262 5.05664 25.0283V22.2881C5.11311 22.2385 5.11311 22.1888 5.11311 22.1888ZM8.79593 27.4696C9.30605 27.4696 9.75923 27.3699 10.1559 27.1705C10.5714 26.9626 10.9069 26.6504 11.1192 26.2738C11.3456 25.925 11.459 25.4768 11.459 25.0283C11.459 24.5801 11.3461 24.1816 11.1192 23.7827C10.8887 23.4308 10.5563 23.1387 10.1559 22.9361C9.70276 22.7367 9.24958 22.5873 8.79593 22.5873C8.11641 22.5873 7.49288 22.7863 7.0397 23.1852C6.52958 23.5837 6.24629 24.0819 6.18982 24.6794V25.0283C6.18982 25.4768 6.30276 25.8753 6.52958 26.2738C6.75641 26.6226 7.09617 26.9214 7.49288 27.1705C7.83311 27.3699 8.28629 27.4696 8.79641 27.4696H8.79593Z" fill="#F16726"/>
<path d="M8.79624 28.416C8.05929 28.416 7.43624 28.267 6.86965 27.9678C6.31005 27.6751 5.84255 27.264 5.50965 26.772C5.17035 26.2738 5 25.6763 5 25.0787V22.2881V19.5981C5 19.4487 5.05647 19.2993 5.16988 19.1996C5.28329 19.0498 5.39671 19.0001 5.62306 19.0001C5.79341 19.0001 5.96329 19.0498 6.07671 19.1495C6.18965 19.2492 6.24612 19.3986 6.24612 19.5484V22.5873C6.52988 22.3878 6.86965 22.1387 7.20941 21.9894C7.71953 21.7903 8.22965 21.6405 8.85271 21.6405C9.53271 21.6405 10.1562 21.7903 10.7224 22.0891C11.2819 22.3818 11.7494 22.7929 12.0824 23.2849C12.4221 23.7827 12.592 24.3807 12.592 24.9786C12.592 25.6262 12.4226 26.1745 12.0824 26.6723C11.7421 27.1705 11.2889 27.619 10.7224 27.8681C10.1558 28.2666 9.47576 28.416 8.79624 28.416ZM5.62306 19.2492C5.51799 19.2511 5.4173 19.2866 5.33976 19.3489C5.269 19.4172 5.22886 19.5057 5.22682 19.5981V25.0283C5.22682 25.6262 5.39624 26.1248 5.68 26.6226C5.96329 27.1208 6.41647 27.4696 6.92659 27.7688C7.43623 28.0175 8.05929 28.1669 8.73929 28.1669C9.41929 28.1669 9.98588 28.0179 10.5525 27.7684C11.0887 27.5043 11.5228 27.1053 11.7991 26.6226C12.0824 26.1244 12.2522 25.6262 12.2522 25.0283C12.2522 24.4307 12.0824 23.9325 11.7991 23.4343C11.5722 22.9858 11.1191 22.5873 10.6089 22.3378C10.0993 22.039 9.53271 21.9397 8.85271 21.9397C8.28612 21.9397 7.776 22.039 7.32329 22.2385C6.87331 22.4364 6.48439 22.727 6.18965 23.0855L5.96329 23.3843V19.5981C5.96329 19.4987 5.90682 19.4487 5.84988 19.3489C5.79341 19.2993 5.73694 19.2496 5.62306 19.2496V19.2492ZM8.79624 27.5698C8.28612 27.5698 7.776 27.4701 7.37976 27.221C6.92659 27.0215 6.58635 26.6727 6.36 26.3243C6.13318 25.9254 5.96329 25.4772 5.96329 25.0291V24.6803C6.07624 24.0323 6.36 23.4844 6.86965 23.0859C7.37976 22.6874 8.05929 22.488 8.79624 22.488C9.30588 22.488 9.816 22.5873 10.2127 22.8368C10.6659 23.0358 11.0056 23.3847 11.2325 23.7335C11.4588 24.132 11.6287 24.5805 11.6287 25.0287C11.6287 25.5269 11.5158 25.9254 11.2325 26.3238C11.0154 26.7142 10.6566 27.0299 10.2127 27.221C9.75906 27.4701 9.30588 27.5698 8.79624 27.5698ZM6.24659 24.7796V25.0287C6.24659 25.4772 6.35953 25.8757 6.58635 26.2245C6.81318 26.5734 7.09647 26.8721 7.49271 27.0716C7.88941 27.2706 8.28612 27.3703 8.79624 27.3703C9.24941 27.3703 9.70259 27.271 10.0993 27.0716C10.496 26.8721 10.7788 26.5734 11.0056 26.2245C11.2325 25.8757 11.3459 25.4772 11.3459 25.0287C11.3459 24.5805 11.2325 24.1821 11.0056 23.8328C10.7788 23.4844 10.4391 23.2353 10.0424 23.0358C9.70259 22.8368 9.24941 22.7371 8.79624 22.7371C8.11624 22.7371 7.54918 22.9365 7.09647 23.2849C6.64329 23.6338 6.36 24.132 6.24659 24.6803V24.7796ZM18.5976 21.8901C18.824 21.9894 18.9374 22.0891 18.9374 22.2385V22.3382C18.8809 22.4375 18.8245 22.5376 18.7675 22.5376C18.7111 22.5873 18.5976 22.5873 18.4842 22.5873H17.7473C17.0678 22.5873 16.5576 22.7367 16.1045 23.0358C15.7078 23.3346 15.4814 23.7331 15.4814 24.2317V27.7187C15.4814 27.8681 15.4249 27.9678 15.368 28.0676C15.2546 28.1669 15.1412 28.1669 14.9713 28.1669C14.8014 28.1669 14.688 28.1172 14.5746 28.0676C14.4616 27.9678 14.4616 27.8681 14.4616 27.7187V22.2385C14.4616 22.0895 14.5181 21.9894 14.5746 21.8901C14.688 21.7903 14.8014 21.7903 14.9713 21.7903C15.1412 21.7903 15.2546 21.84 15.368 21.8896C15.4809 21.9894 15.4809 22.0891 15.4809 22.2385V22.7367C15.7647 22.3878 16.048 22.1387 16.4442 21.9894C16.8409 21.7903 17.2941 21.7403 17.7478 21.7403C18.0875 21.7899 18.3708 21.84 18.5976 21.8901Z" fill="#F16726"/>
<path d="M14.9712 28.3664C14.7449 28.3664 14.6315 28.3167 14.518 28.217C14.4051 28.1173 14.3486 27.9679 14.3486 27.8185V22.3383C14.3486 22.1388 14.4051 22.0391 14.518 21.9398C14.6315 21.8401 14.8013 21.79 14.9717 21.79C15.1411 21.79 15.3115 21.8396 15.4249 21.9398C15.5378 22.0391 15.5947 22.1889 15.5947 22.3383V22.4876C15.8216 22.2882 16.0479 22.0892 16.3882 21.9894C16.7844 21.79 17.2376 21.6907 17.7482 21.6907C18.1444 21.6907 18.4277 21.7403 18.711 21.8396C19.0507 21.9894 19.1077 22.1889 19.1077 22.3383V22.4876C19.0512 22.637 18.9943 22.7367 18.8809 22.7864C18.7679 22.8361 18.654 22.8861 18.4842 22.8861H17.8042C17.1811 22.8861 16.671 23.0355 16.2747 23.3347C15.878 23.6334 15.7082 23.9823 15.7082 24.4308V27.9178C15.7082 28.0676 15.6517 28.217 15.5383 28.3167C15.3115 28.3167 15.1416 28.3664 14.9717 28.3664H14.9712ZM14.9712 21.9898C14.8664 21.9917 14.7659 22.027 14.6884 22.0892C14.6319 22.0892 14.575 22.1885 14.575 22.2882V27.7685C14.575 27.8682 14.6315 27.9679 14.6879 28.0176C14.7449 28.0672 14.8583 28.1173 14.9717 28.1173C15.0767 28.1155 15.1774 28.0802 15.255 28.018C15.3259 27.9496 15.366 27.8609 15.3679 27.7685V24.281C15.3679 23.7332 15.5948 23.2846 16.0479 22.9858C16.5011 22.637 17.0677 22.4876 17.7477 22.4876H18.4842C18.5976 22.4876 18.654 22.4876 18.711 22.438C18.7675 22.3883 18.7675 22.3383 18.8239 22.2882V22.2385C18.8239 22.1889 18.8239 22.0892 18.5976 21.9894C18.4277 21.8901 18.1444 21.8901 17.8042 21.8901C17.351 21.8901 16.9543 21.9894 16.6145 22.1388C16.2178 22.2882 15.9345 22.5373 15.7082 22.8365L15.4249 23.1853V22.2882C15.4227 22.1958 15.3824 22.1073 15.3115 22.0391C15.1416 21.9894 15.0846 21.9894 14.9717 21.9894L14.9712 21.9898ZM34.1213 22.1889C34.6879 22.4876 35.1411 22.8365 35.4249 23.3347C35.7646 23.8329 35.878 24.3807 35.878 25.0283V27.4201C35.878 28.0176 35.7077 28.6155 35.4244 29.1137C35.0846 29.6119 34.6879 30.0104 34.1213 30.3096C33.5547 30.6083 32.9317 30.7577 32.2517 30.7577C31.5717 30.7577 30.9482 30.6584 30.4385 30.4089C29.9289 30.1598 29.4757 29.861 29.0785 29.4625C29.022 29.3628 28.9656 29.3132 28.9656 29.2134C28.9656 29.1137 29.022 29.014 29.1355 28.9143C29.2489 28.8646 29.3053 28.8149 29.4187 28.8149C29.4752 28.8149 29.5886 28.815 29.6456 28.8646L29.8155 29.014C30.0987 29.3132 30.4385 29.5623 30.8352 29.7116C31.2644 29.8755 31.7273 29.9603 32.1952 29.9607C32.7049 29.9607 33.158 29.861 33.5552 29.6616C33.9705 29.4536 34.3058 29.1414 34.518 28.7649C34.7449 28.3664 34.8578 27.9178 34.8578 27.4201V26.8718C34.5745 27.3203 34.2347 27.6687 33.7246 27.9178C33.215 28.167 32.7049 28.3167 32.0818 28.3167C31.4018 28.3167 30.7783 28.167 30.2122 27.9178C29.6456 27.6191 29.2489 27.2703 28.9656 26.7721C28.6633 26.2473 28.508 25.6666 28.5124 25.0784C28.5124 24.4308 28.6823 23.8825 28.9656 23.3843C29.3053 22.8861 29.702 22.4876 30.2691 22.2385C30.8352 21.9398 31.4583 21.8401 32.1383 21.8401C32.9317 21.7904 33.5547 21.9394 34.1213 22.1889ZM33.6117 27.171C34.012 26.9683 34.3442 26.676 34.5745 26.3239C34.8013 25.9751 34.9147 25.5265 34.9147 25.0784C34.9147 24.6298 34.8013 24.1817 34.5745 23.8329C34.3442 23.4808 34.012 23.1886 33.6117 22.9858C33.215 22.7864 32.7618 22.6871 32.2517 22.6871C31.7416 22.6871 31.2884 22.7864 30.8352 22.9858C30.4347 23.1885 30.1024 23.4807 29.8719 23.8329C29.6456 24.1817 29.5322 24.6298 29.5322 25.0784C29.5322 25.5265 29.6451 25.9751 29.8719 26.3239C30.1024 26.6759 30.4348 26.968 30.8352 27.1705C31.2319 27.37 31.6851 27.4697 32.2517 27.4697C32.7618 27.4697 33.215 27.37 33.6117 27.1705V27.171Z" fill="#F16726"/>
<path d="M32.2517 30.8574C31.5721 30.8574 30.9491 30.7581 30.3825 30.5086C29.8159 30.2595 29.3622 29.9607 29.0225 29.5122C28.9095 29.4129 28.8526 29.3131 28.8526 29.1634C28.8526 29.0144 28.9091 28.8646 29.0789 28.7649C29.3058 28.6155 29.5326 28.6155 29.7589 28.7152C29.8724 28.7649 29.9288 28.8145 29.9858 28.8646C30.2435 29.145 30.5738 29.367 30.9491 29.5122C31.3453 29.6616 31.7985 29.7613 32.2521 29.7613C32.7053 29.7613 33.1585 29.662 33.4982 29.4625C33.8949 29.2631 34.1782 28.9643 34.4051 28.6155C34.6314 28.2667 34.7448 27.8185 34.7448 27.37V27.2707C34.5185 27.5694 34.1782 27.7685 33.8385 27.9679C33.3028 28.2335 32.6972 28.3709 32.0822 28.3664C31.3453 28.3664 30.7222 28.217 30.1557 27.9178C29.5891 27.6191 29.1359 27.2206 28.8521 26.722C28.5124 26.2242 28.3994 25.6263 28.3994 24.9787C28.3994 24.3311 28.5688 23.7331 28.9091 23.2349C29.2419 22.7429 29.7095 22.3318 30.2691 22.0391C30.8356 21.7403 31.5152 21.5909 32.2521 21.5909C32.9886 21.5909 33.6686 21.7403 34.2352 22.0395C34.7948 22.3322 35.2623 22.7433 35.5952 23.2354C35.9349 23.7331 36.1048 24.3311 36.1048 24.9787V27.3704C36.1048 28.0176 35.9349 28.6155 35.5947 29.1137C35.2549 29.6119 34.8018 30.0605 34.2347 30.3592C33.6117 30.708 32.9886 30.8574 32.2521 30.8574H32.2517ZM29.4757 28.9143C29.4192 28.9143 29.3058 28.9143 29.2493 28.9639C29.1359 29.064 29.1359 29.1137 29.1359 29.1634C29.1359 29.213 29.1359 29.3131 29.1924 29.3628C29.5326 29.7613 29.9858 30.0605 30.4959 30.2595C31.0055 30.4589 31.5721 30.6083 32.2521 30.6083C32.9317 30.6083 33.4982 30.4589 34.0648 30.2098C34.5749 29.9107 35.0281 29.5623 35.3119 29.0636C35.5947 28.5658 35.7646 28.0176 35.7646 27.4196V25.0283C35.7646 24.4308 35.5952 23.8825 35.3114 23.4344C35.017 22.9761 34.586 22.5972 34.0648 22.3383C33.5552 22.0891 32.9317 21.9398 32.2521 21.9398C31.5721 21.9398 30.9486 22.0891 30.4389 22.3383C29.9178 22.5972 29.4868 22.9762 29.1924 23.4344C28.9091 23.8825 28.7392 24.4308 28.7392 25.0283C28.7392 25.6263 28.9091 26.1745 29.1924 26.6227C29.4757 27.0712 29.8724 27.4697 30.3825 27.7188C30.9209 27.9784 31.5247 28.1154 32.1387 28.1173C32.7053 28.1173 33.2719 28.018 33.7251 27.7685C34.1788 27.5269 34.5506 27.1829 34.8018 26.772L35.0851 26.8217V27.37C35.0851 27.8682 34.9717 28.3664 34.7448 28.7649C34.5185 29.1634 34.1782 29.4625 33.7251 29.7116C33.3284 29.9607 32.8187 30.0605 32.3086 30.0605C31.8224 30.0598 31.3412 29.9752 30.8921 29.8114C30.4954 29.6616 30.0992 29.4125 29.8159 29.064L29.7025 28.9643C29.5891 28.9643 29.5326 28.9147 29.4757 28.9147V28.9143ZM32.2521 27.5694C31.6855 27.5694 31.2319 27.4697 30.7792 27.2206C30.3255 27.0211 29.9858 26.6723 29.7589 26.3239C29.5335 25.9211 29.4172 25.4777 29.4192 25.0287C29.4192 24.5301 29.5321 24.082 29.7589 23.7336C29.976 23.343 30.3348 23.0272 30.7787 22.836C31.1754 22.5869 31.6855 22.4872 32.2517 22.4872C32.7618 22.4872 33.2719 22.5865 33.7251 22.836C34.1782 23.0355 34.5185 23.3839 34.7448 23.7327C34.9717 24.1312 35.0851 24.5798 35.0851 25.0279C35.0851 25.5261 34.9717 25.9747 34.7448 26.3231C34.5277 26.7135 34.1689 27.0291 33.7251 27.2202C33.2719 27.4693 32.7618 27.569 32.2521 27.569V27.5694ZM32.2521 22.7367C31.742 22.7367 31.3453 22.836 30.9486 23.0359C30.5675 23.2216 30.2534 23.4978 30.0422 23.8329C29.8159 24.1817 29.7025 24.5802 29.7025 25.0287C29.7025 25.4769 29.8154 25.8754 30.0422 26.2242C30.2534 26.5593 30.5675 26.8354 30.9486 27.0212C31.3462 27.2186 31.7955 27.3217 32.2521 27.3203C32.7618 27.3203 33.1585 27.2206 33.5552 27.0212C33.9363 26.8354 34.2503 26.5593 34.4615 26.2242C34.6884 25.8754 34.8018 25.4769 34.8018 25.0283C34.8018 24.5802 34.6884 24.1817 34.4615 23.8325C34.2503 23.4975 33.9362 23.2215 33.5552 23.0359C33.1575 22.8384 32.7083 22.7353 32.2517 22.7367H32.2521Z" fill="#F16726"/>
</g>
<defs>
<clipPath id="clip0">
<rect width="40" height="12" fill="white" transform="translate(5 19.0001)"/>
</clipPath>
</defs>
</svg>
