<svg width="40" height="40" viewBox="0 0 40 40" fill="none" xmlns="http://www.w3.org/2000/svg">
<rect y="0.00012207" width="40" height="40" rx="8" fill="#E5EFEF"/>
<path d="M29 12.5001H11C10.6022 12.5001 10.2206 12.6582 9.93934 12.9395C9.65804 13.2208 9.5 13.6023 9.5 14.0001V26.0001C9.5 26.3979 9.65804 26.7795 9.93934 27.0608C10.2206 27.3421 10.6022 27.5001 11 27.5001H29C29.3978 27.5001 29.7794 27.3421 30.0607 27.0608C30.342 26.7795 30.5 26.3979 30.5 26.0001V14.0001C30.5 13.6023 30.342 13.2208 30.0607 12.9395C29.7794 12.6582 29.3978 12.5001 29 12.5001ZM27.35 14.0001L20 19.0851L12.65 14.0001H27.35ZM11 26.0001V14.6826L19.5725 20.6151C19.698 20.7022 19.8472 20.7489 20 20.7489C20.1528 20.7489 20.302 20.7022 20.4275 20.6151L29 14.6826V26.0001H11Z" fill="#005F61"/>
</svg>
