<svg width="40" height="40" viewBox="0 0 40 40" fill="none" xmlns="http://www.w3.org/2000/svg">
<rect y="0.00012207" width="40" height="40" rx="8" fill="#E5EFEF"/>
<path d="M27.5003 29.7501H27.3728C12.6353 28.9026 10.5428 16.4676 10.2503 12.6726C10.2267 12.3776 10.2616 12.0807 10.353 11.7992C10.4443 11.5176 10.5903 11.2569 10.7826 11.0318C10.9749 10.8068 11.2097 10.6219 11.4736 10.4878C11.7374 10.3536 12.0252 10.2729 12.3203 10.2501H16.4528C16.7532 10.2498 17.0468 10.3398 17.2955 10.5082C17.5443 10.6767 17.7367 10.916 17.8478 11.1951L18.9878 14.0001C19.0976 14.2728 19.1248 14.5717 19.0661 14.8597C19.0075 15.1477 18.8655 15.4121 18.6578 15.6201L17.0603 17.2326C17.3098 18.6507 17.9889 19.9579 19.0057 20.9773C20.0225 21.9968 21.3279 22.6793 22.7453 22.9326L24.3728 21.3201C24.5839 21.1147 24.8508 20.9761 25.1403 20.9214C25.4297 20.8667 25.7288 20.8984 26.0003 21.0126L28.8278 22.1451C29.1027 22.2598 29.3372 22.4537 29.5015 22.7021C29.6658 22.9506 29.7524 23.2423 29.7503 23.5401V27.5001C29.7503 28.0969 29.5133 28.6692 29.0913 29.0911C28.6693 29.5131 28.097 29.7501 27.5003 29.7501ZM12.5003 11.7501C12.3014 11.7501 12.1106 11.8291 11.97 11.9698C11.8293 12.1104 11.7503 12.3012 11.7503 12.5001V12.5601C12.0953 17.0001 14.3078 27.5001 27.4553 28.2501C27.5538 28.2562 27.6526 28.2428 27.7459 28.2106C27.8393 28.1785 27.9253 28.1282 27.9992 28.0627C28.073 27.9972 28.1333 27.9178 28.1763 27.8289C28.2194 27.7401 28.2446 27.6437 28.2503 27.5451V23.5401L25.4228 22.4076L23.2703 24.5451L22.9103 24.5001C16.3853 23.6826 15.5003 17.1576 15.5003 17.0901L15.4553 16.7301L17.5853 14.5776L16.4603 11.7501H12.5003Z" fill="#005F61"/>
</svg>
