<svg width="162" height="43" viewBox="0 0 162 43" fill="none" xmlns="http://www.w3.org/2000/svg">
<rect y="3" width="40" height="40" rx="8" fill="#E5EFEF"/>
<path d="M27.5001 32.75H27.3726C12.6351 31.9025 10.5426 19.4675 10.2501 15.6725C10.2265 15.3774 10.2614 15.0806 10.3527 14.7991C10.4441 14.5175 10.5901 14.2567 10.7824 14.0317C10.9746 13.8067 11.2095 13.6218 11.4733 13.4876C11.7372 13.3535 12.0249 13.2727 12.3201 13.25H16.4526C16.753 13.2497 17.0466 13.3396 17.2953 13.5081C17.544 13.6766 17.7364 13.9159 17.8476 14.195L18.9876 17C19.0973 17.2727 19.1246 17.5716 19.0659 17.8596C19.0072 18.1476 18.8652 18.412 18.6576 18.62L17.0601 20.2325C17.3096 21.6506 17.9887 22.9578 19.0055 23.9772C20.0223 24.9967 21.3277 25.6792 22.7451 25.9325L24.3726 24.32C24.5837 24.1146 24.8506 23.9759 25.14 23.9213C25.4294 23.8666 25.7286 23.8983 26.0001 24.0125L28.8276 25.145C29.1025 25.2597 29.337 25.4536 29.5013 25.702C29.6656 25.9504 29.7522 26.2422 29.7501 26.54V30.5C29.7501 31.0967 29.513 31.669 29.0911 32.091C28.6691 32.5129 28.0968 32.75 27.5001 32.75ZM12.5001 14.75C12.3012 14.75 12.1104 14.829 11.9697 14.9697C11.8291 15.1103 11.7501 15.3011 11.7501 15.5V15.56C12.0951 20 14.3076 30.5 27.4551 31.25C27.5536 31.2561 27.6524 31.2427 27.7457 31.2105C27.839 31.1783 27.9251 31.1281 27.9989 31.0626C28.0728 30.9971 28.133 30.9176 28.1761 30.8288C28.2192 30.74 28.2443 30.6436 28.2501 30.545V26.54L25.4226 25.4075L23.2701 27.545L22.9101 27.5C16.3851 26.6825 15.5001 20.1575 15.5001 20.09L15.4551 19.73L17.5851 17.5775L16.4601 14.75H12.5001Z" fill="#005F61"/>
<path d="M60.4453 32.2891C60.4453 34.2734 60.125 35.7474 59.4844 36.7109C58.849 37.6745 57.875 38.1562 56.5625 38.1562C55.2917 38.1562 54.3281 37.6589 53.6719 36.6641C53.0156 35.6693 52.6875 34.2109 52.6875 32.2891C52.6875 30.2734 53.0052 28.7891 53.6406 27.8359C54.2812 26.8776 55.2552 26.3984 56.5625 26.3984C57.8385 26.3984 58.8047 26.8984 59.4609 27.8984C60.1172 28.8984 60.4453 30.362 60.4453 32.2891ZM54.5469 32.2891C54.5469 33.8464 54.7057 34.9583 55.0234 35.625C55.3464 36.2917 55.8594 36.625 56.5625 36.625C57.2656 36.625 57.7786 36.2865 58.1016 35.6094C58.4297 34.9323 58.5938 33.8255 58.5938 32.2891C58.5938 30.7578 58.4297 29.651 58.1016 28.9688C57.7786 28.2812 57.2656 27.9375 56.5625 27.9375C55.8594 27.9375 55.3464 28.2734 55.0234 28.9453C54.7057 29.6172 54.5469 30.7318 54.5469 32.2891ZM65.7031 26.4297C66.7865 26.4297 67.6432 26.6797 68.2734 27.1797C68.9036 27.6745 69.2188 28.3385 69.2188 29.1719C69.2188 30.3438 68.5156 31.276 67.1094 31.9688C68.0052 32.4167 68.6406 32.888 69.0156 33.3828C69.3958 33.8776 69.5859 34.4297 69.5859 35.0391C69.5859 35.9818 69.2396 36.737 68.5469 37.3047C67.8542 37.8724 66.9167 38.1562 65.7344 38.1562C64.4948 38.1562 63.5339 37.8906 62.8516 37.3594C62.1693 36.8281 61.8281 36.0755 61.8281 35.1016C61.8281 34.4661 62.0052 33.8958 62.3594 33.3906C62.7188 32.8802 63.3047 32.4271 64.1172 32.0312C63.4193 31.6146 62.9219 31.1745 62.625 30.7109C62.3281 30.2474 62.1797 29.7266 62.1797 29.1484C62.1797 28.3203 62.5052 27.6615 63.1562 27.1719C63.8073 26.6771 64.6562 26.4297 65.7031 26.4297ZM63.5859 35.0391C63.5859 35.5807 63.776 36.0026 64.1562 36.3047C64.5365 36.6016 65.0521 36.75 65.7031 36.75C66.375 36.75 66.8958 36.5964 67.2656 36.2891C67.6406 35.9766 67.8281 35.5547 67.8281 35.0234C67.8281 34.6016 67.6562 34.2161 67.3125 33.8672C66.9688 33.5182 66.4479 33.1953 65.75 32.8984L65.5234 32.7969C64.8359 33.099 64.3411 33.4323 64.0391 33.7969C63.737 34.1562 63.5859 34.5703 63.5859 35.0391ZM65.6875 27.8438C65.1667 27.8438 64.7474 27.974 64.4297 28.2344C64.112 28.4896 63.9531 28.8385 63.9531 29.2812C63.9531 29.5521 64.0104 29.7943 64.125 30.0078C64.2396 30.2214 64.4062 30.4167 64.625 30.5938C64.8438 30.7656 65.2135 30.974 65.7344 31.2188C66.3594 30.9427 66.7995 30.6536 67.0547 30.3516C67.3151 30.0443 67.4453 29.6875 67.4453 29.2812C67.4453 28.8385 67.2839 28.4896 66.9609 28.2344C66.6432 27.974 66.2188 27.8438 65.6875 27.8438ZM74.8438 26.4297C75.9271 26.4297 76.7839 26.6797 77.4141 27.1797C78.0443 27.6745 78.3594 28.3385 78.3594 29.1719C78.3594 30.3438 77.6562 31.276 76.25 31.9688C77.1458 32.4167 77.7812 32.888 78.1562 33.3828C78.5365 33.8776 78.7266 34.4297 78.7266 35.0391C78.7266 35.9818 78.3802 36.737 77.6875 37.3047C76.9948 37.8724 76.0573 38.1562 74.875 38.1562C73.6354 38.1562 72.6745 37.8906 71.9922 37.3594C71.3099 36.8281 70.9688 36.0755 70.9688 35.1016C70.9688 34.4661 71.1458 33.8958 71.5 33.3906C71.8594 32.8802 72.4453 32.4271 73.2578 32.0312C72.5599 31.6146 72.0625 31.1745 71.7656 30.7109C71.4688 30.2474 71.3203 29.7266 71.3203 29.1484C71.3203 28.3203 71.6458 27.6615 72.2969 27.1719C72.9479 26.6771 73.7969 26.4297 74.8438 26.4297ZM72.7266 35.0391C72.7266 35.5807 72.9167 36.0026 73.2969 36.3047C73.6771 36.6016 74.1927 36.75 74.8438 36.75C75.5156 36.75 76.0365 36.5964 76.4062 36.2891C76.7812 35.9766 76.9688 35.5547 76.9688 35.0234C76.9688 34.6016 76.7969 34.2161 76.4531 33.8672C76.1094 33.5182 75.5885 33.1953 74.8906 32.8984L74.6641 32.7969C73.9766 33.099 73.4818 33.4323 73.1797 33.7969C72.8776 34.1562 72.7266 34.5703 72.7266 35.0391ZM74.8281 27.8438C74.3073 27.8438 73.888 27.974 73.5703 28.2344C73.2526 28.4896 73.0938 28.8385 73.0938 29.2812C73.0938 29.5521 73.151 29.7943 73.2656 30.0078C73.3802 30.2214 73.5469 30.4167 73.7656 30.5938C73.9844 30.7656 74.3542 30.974 74.875 31.2188C75.5 30.9427 75.9401 30.6536 76.1953 30.3516C76.4557 30.0443 76.5859 29.6875 76.5859 29.2812C76.5859 28.8385 76.4245 28.4896 76.1016 28.2344C75.7839 27.974 75.3594 27.8438 74.8281 27.8438ZM83.9844 26.4297C85.0677 26.4297 85.9245 26.6797 86.5547 27.1797C87.1849 27.6745 87.5 28.3385 87.5 29.1719C87.5 30.3438 86.7969 31.276 85.3906 31.9688C86.2865 32.4167 86.9219 32.888 87.2969 33.3828C87.6771 33.8776 87.8672 34.4297 87.8672 35.0391C87.8672 35.9818 87.5208 36.737 86.8281 37.3047C86.1354 37.8724 85.1979 38.1562 84.0156 38.1562C82.776 38.1562 81.8151 37.8906 81.1328 37.3594C80.4505 36.8281 80.1094 36.0755 80.1094 35.1016C80.1094 34.4661 80.2865 33.8958 80.6406 33.3906C81 32.8802 81.5859 32.4271 82.3984 32.0312C81.7005 31.6146 81.2031 31.1745 80.9062 30.7109C80.6094 30.2474 80.4609 29.7266 80.4609 29.1484C80.4609 28.3203 80.7865 27.6615 81.4375 27.1719C82.0885 26.6771 82.9375 26.4297 83.9844 26.4297ZM81.8672 35.0391C81.8672 35.5807 82.0573 36.0026 82.4375 36.3047C82.8177 36.6016 83.3333 36.75 83.9844 36.75C84.6562 36.75 85.1771 36.5964 85.5469 36.2891C85.9219 35.9766 86.1094 35.5547 86.1094 35.0234C86.1094 34.6016 85.9375 34.2161 85.5938 33.8672C85.25 33.5182 84.7292 33.1953 84.0312 32.8984L83.8047 32.7969C83.1172 33.099 82.6224 33.4323 82.3203 33.7969C82.0182 34.1562 81.8672 34.5703 81.8672 35.0391ZM83.9688 27.8438C83.4479 27.8438 83.0286 27.974 82.7109 28.2344C82.3932 28.4896 82.2344 28.8385 82.2344 29.2812C82.2344 29.5521 82.2917 29.7943 82.4062 30.0078C82.5208 30.2214 82.6875 30.4167 82.9062 30.5938C83.125 30.7656 83.4948 30.974 84.0156 31.2188C84.6406 30.9427 85.0807 30.6536 85.3359 30.3516C85.5964 30.0443 85.7266 29.6875 85.7266 29.2812C85.7266 28.8385 85.5651 28.4896 85.2422 28.2344C84.9245 27.974 84.5 27.8438 83.9688 27.8438ZM94.6562 38H92.8203V30.625C92.8203 29.7448 92.8411 29.0469 92.8828 28.5312C92.763 28.6562 92.6146 28.7943 92.4375 28.9453C92.2656 29.0964 91.6823 29.5755 90.6875 30.3828L89.7656 29.2188L93.125 26.5781H94.6562V38ZM106.148 38H98.4062V36.6094L101.352 33.6484C102.221 32.7578 102.797 32.1276 103.078 31.7578C103.365 31.3828 103.573 31.0312 103.703 30.7031C103.833 30.375 103.898 30.0234 103.898 29.6484C103.898 29.1328 103.742 28.7266 103.43 28.4297C103.122 28.1328 102.695 27.9844 102.148 27.9844C101.711 27.9844 101.286 28.0651 100.875 28.2266C100.469 28.388 99.9974 28.6797 99.4609 29.1016L98.4688 27.8906C99.1042 27.3542 99.7214 26.974 100.32 26.75C100.919 26.526 101.557 26.4141 102.234 26.4141C103.297 26.4141 104.148 26.6927 104.789 27.25C105.43 27.8021 105.75 28.5469 105.75 29.4844C105.75 30 105.656 30.4896 105.469 30.9531C105.286 31.4167 105.003 31.8958 104.617 32.3906C104.237 32.8802 103.602 33.5443 102.711 34.3828L100.727 36.3047V36.3828H106.148V38ZM114.859 29.2031C114.859 29.9271 114.648 30.5312 114.227 31.0156C113.805 31.4948 113.211 31.8177 112.445 31.9844V32.0469C113.362 32.1615 114.049 32.4479 114.508 32.9062C114.966 33.3594 115.195 33.9635 115.195 34.7188C115.195 35.8177 114.807 36.6667 114.031 37.2656C113.255 37.8594 112.151 38.1562 110.719 38.1562C109.453 38.1562 108.385 37.9505 107.516 37.5391V35.9062C108 36.1458 108.513 36.3307 109.055 36.4609C109.596 36.5911 110.117 36.6562 110.617 36.6562C111.503 36.6562 112.164 36.4922 112.602 36.1641C113.039 35.8359 113.258 35.3281 113.258 34.6406C113.258 34.0312 113.016 33.5833 112.531 33.2969C112.047 33.0104 111.286 32.8672 110.25 32.8672H109.258V31.375H110.266C112.089 31.375 113 30.7448 113 29.4844C113 28.9948 112.841 28.6172 112.523 28.3516C112.206 28.0859 111.737 27.9531 111.117 27.9531C110.685 27.9531 110.268 28.0156 109.867 28.1406C109.466 28.2604 108.992 28.4974 108.445 28.8516L107.547 27.5703C108.594 26.7995 109.81 26.4141 111.195 26.4141C112.346 26.4141 113.245 26.6615 113.891 27.1562C114.536 27.651 114.859 28.3333 114.859 29.2031ZM124.836 35.5078H123.297V38H121.508V35.5078H116.289V34.0938L121.508 26.5469H123.297V33.9844H124.836V35.5078ZM121.508 33.9844V31.1172C121.508 30.0964 121.534 29.2604 121.586 28.6094H121.523C121.378 28.9531 121.148 29.3698 120.836 29.8594L118 33.9844H121.508ZM129.703 30.8672C130.854 30.8672 131.766 31.1719 132.438 31.7812C133.109 32.3906 133.445 33.2214 133.445 34.2734C133.445 35.4922 133.062 36.4453 132.297 37.1328C131.536 37.8151 130.453 38.1562 129.047 38.1562C127.771 38.1562 126.768 37.9505 126.039 37.5391V35.875C126.461 36.1146 126.945 36.2995 127.492 36.4297C128.039 36.5599 128.547 36.625 129.016 36.625C129.844 36.625 130.474 36.4401 130.906 36.0703C131.339 35.7005 131.555 35.1589 131.555 34.4453C131.555 33.0807 130.685 32.3984 128.945 32.3984C128.701 32.3984 128.398 32.4245 128.039 32.4766C127.68 32.5234 127.365 32.5781 127.094 32.6406L126.273 32.1562L126.711 26.5781H132.648V28.2109H128.328L128.07 31.0391C128.253 31.0078 128.474 30.9714 128.734 30.9297C129 30.888 129.323 30.8672 129.703 30.8672ZM135 33.1328C135 28.6641 136.82 26.4297 140.461 26.4297C141.034 26.4297 141.518 26.474 141.914 26.5625V28.0938C141.518 27.9792 141.06 27.9219 140.539 27.9219C139.315 27.9219 138.396 28.25 137.781 28.9062C137.167 29.5625 136.833 30.6146 136.781 32.0625H136.875C137.12 31.6406 137.464 31.3151 137.906 31.0859C138.349 30.8516 138.87 30.7344 139.469 30.7344C140.505 30.7344 141.312 31.0521 141.891 31.6875C142.469 32.3229 142.758 33.1849 142.758 34.2734C142.758 35.4714 142.422 36.4193 141.75 37.1172C141.083 37.8099 140.172 38.1562 139.016 38.1562C138.198 38.1562 137.487 37.9609 136.883 37.5703C136.279 37.1745 135.812 36.6016 135.484 35.8516C135.161 35.0964 135 34.1901 135 33.1328ZM138.984 36.6406C139.615 36.6406 140.099 36.4375 140.438 36.0312C140.781 35.625 140.953 35.0443 140.953 34.2891C140.953 33.6328 140.792 33.1172 140.469 32.7422C140.151 32.3672 139.672 32.1797 139.031 32.1797C138.635 32.1797 138.271 32.2656 137.938 32.4375C137.604 32.6042 137.341 32.8359 137.148 33.1328C136.956 33.4245 136.859 33.724 136.859 34.0312C136.859 34.7656 137.057 35.3854 137.453 35.8906C137.854 36.3906 138.365 36.6406 138.984 36.6406ZM145.406 38L149.922 28.2109H143.984V26.5938H151.883V27.875L147.391 38H145.406ZM157.109 26.4297C158.193 26.4297 159.049 26.6797 159.68 27.1797C160.31 27.6745 160.625 28.3385 160.625 29.1719C160.625 30.3438 159.922 31.276 158.516 31.9688C159.411 32.4167 160.047 32.888 160.422 33.3828C160.802 33.8776 160.992 34.4297 160.992 35.0391C160.992 35.9818 160.646 36.737 159.953 37.3047C159.26 37.8724 158.323 38.1562 157.141 38.1562C155.901 38.1562 154.94 37.8906 154.258 37.3594C153.576 36.8281 153.234 36.0755 153.234 35.1016C153.234 34.4661 153.411 33.8958 153.766 33.3906C154.125 32.8802 154.711 32.4271 155.523 32.0312C154.826 31.6146 154.328 31.1745 154.031 30.7109C153.734 30.2474 153.586 29.7266 153.586 29.1484C153.586 28.3203 153.911 27.6615 154.562 27.1719C155.214 26.6771 156.062 26.4297 157.109 26.4297ZM154.992 35.0391C154.992 35.5807 155.182 36.0026 155.562 36.3047C155.943 36.6016 156.458 36.75 157.109 36.75C157.781 36.75 158.302 36.5964 158.672 36.2891C159.047 35.9766 159.234 35.5547 159.234 35.0234C159.234 34.6016 159.062 34.2161 158.719 33.8672C158.375 33.5182 157.854 33.1953 157.156 32.8984L156.93 32.7969C156.242 33.099 155.747 33.4323 155.445 33.7969C155.143 34.1562 154.992 34.5703 154.992 35.0391ZM157.094 27.8438C156.573 27.8438 156.154 27.974 155.836 28.2344C155.518 28.4896 155.359 28.8385 155.359 29.2812C155.359 29.5521 155.417 29.7943 155.531 30.0078C155.646 30.2214 155.812 30.4167 156.031 30.5938C156.25 30.7656 156.62 30.974 157.141 31.2188C157.766 30.9427 158.206 30.6536 158.461 30.3516C158.721 30.0443 158.852 29.6875 158.852 29.2812C158.852 28.8385 158.69 28.4896 158.367 28.2344C158.049 27.974 157.625 27.8438 157.094 27.8438Z" fill="#005F61"/>
<path d="M57.642 5.97C56.5687 5.97 55.724 6.32933 55.108 7.048C54.492 7.76667 54.184 8.75133 54.184 10.002C54.184 11.2433 54.4687 12.228 55.038 12.956C55.6167 13.6747 56.48 14.034 57.628 14.034C58.0667 14.034 58.482 13.9967 58.874 13.922C59.266 13.8473 59.6487 13.754 60.022 13.642V14.734C59.6487 14.874 59.2613 14.9767 58.86 15.042C58.468 15.1073 57.9967 15.14 57.446 15.14C56.4287 15.14 55.5793 14.93 54.898 14.51C54.2167 14.09 53.7033 13.4927 53.358 12.718C53.022 11.9433 52.854 11.0333 52.854 9.988C52.854 8.98 53.036 8.09333 53.4 7.328C53.7733 6.55333 54.3193 5.95133 55.038 5.522C55.7567 5.08333 56.6293 4.864 57.656 4.864C58.7107 4.864 59.63 5.06 60.414 5.452L59.91 6.516C59.602 6.376 59.2567 6.25 58.874 6.138C58.5007 6.026 58.09 5.97 57.642 5.97ZM64.8777 7.37C65.7924 7.37 66.469 7.57067 66.9077 7.972C67.3464 8.37333 67.5657 9.01267 67.5657 9.89V15H66.6697L66.4317 13.936H66.3757C66.049 14.3467 65.7037 14.65 65.3397 14.846C64.985 15.042 64.4904 15.14 63.8557 15.14C63.1744 15.14 62.6097 14.9627 62.1617 14.608C61.7137 14.244 61.4897 13.6793 61.4897 12.914C61.4897 12.1673 61.7837 11.5933 62.3717 11.192C62.9597 10.7813 63.865 10.5573 65.0877 10.52L66.3617 10.478V10.03C66.3617 9.40467 66.2264 8.97067 65.9557 8.728C65.685 8.48533 65.3024 8.364 64.8077 8.364C64.4157 8.364 64.0424 8.42467 63.6877 8.546C63.333 8.658 63.0017 8.78867 62.6937 8.938L62.3157 8.014C62.6424 7.83667 63.0297 7.68733 63.4777 7.566C63.9257 7.43533 64.3924 7.37 64.8777 7.37ZM65.2417 11.374C64.3084 11.4113 63.6597 11.5607 63.2957 11.822C62.941 12.0833 62.7637 12.452 62.7637 12.928C62.7637 13.348 62.8897 13.656 63.1417 13.852C63.403 14.048 63.7344 14.146 64.1357 14.146C64.7704 14.146 65.2977 13.9733 65.7177 13.628C66.1377 13.2733 66.3477 12.732 66.3477 12.004V11.332L65.2417 11.374ZM71.1154 15H69.8834V4.36H71.1154V15ZM74.7247 15H73.4927V4.36H74.7247V15Z" fill="#4E4E4E"/>
</svg>
